<svg width="64" height="64" viewBox="0 0 64 64" fill="none" xmlns="http://www.w3.org/2000/svg">
<circle cx="32" cy="32" r="26" stroke="#FE8084" stroke-width="2"/>
<mask id="path-2-outside-1_1350_263" maskUnits="userSpaceOnUse" x="20" y="19" width="25" height="26" fill="black">
<rect fill="white" x="20" y="19" width="25" height="26"/>
<path d="M43.4676 37.1246C43.4676 38.4231 43.1696 39.4981 42.5735 40.3497C41.9775 41.2012 41.1792 41.8824 40.1786 42.3933C39.1781 42.8829 38.0286 43.2235 36.73 43.4151C35.4314 43.628 34.0903 43.7344 32.7066 43.7344C31.6209 43.7344 30.5352 43.6812 29.4496 43.5748C28.3852 43.4896 27.3527 43.3725 26.3522 43.2235C25.3729 43.0745 24.4576 42.9148 23.606 42.7445C22.7545 42.5742 22.0201 42.4146 21.4028 42.2656L21.7221 33.3247H22.201C22.4565 34.4104 22.8929 35.5386 23.5103 36.7094C24.1276 37.859 24.8727 38.9127 25.7455 39.8707C26.6396 40.8286 27.6401 41.6163 28.7471 42.2336C29.854 42.851 31.0249 43.1597 32.2596 43.1597C33.4517 43.1597 34.3351 42.8723 34.9099 42.2975C35.4847 41.7014 35.7721 40.9564 35.7721 40.0623C35.7721 39.3598 35.3995 38.6892 34.6544 38.0506C33.9094 37.4119 32.9833 36.7733 31.8764 36.1347C30.7694 35.496 29.556 34.8468 28.2362 34.1868C26.9376 33.5269 25.7348 32.8244 24.6279 32.0793C23.5209 31.313 22.5949 30.4934 21.8498 29.6206C21.1047 28.7478 20.7322 27.7792 20.7322 26.7148C20.7322 25.4375 21.0302 24.3838 21.6263 23.5535C22.2223 22.7233 22.9993 22.0634 23.9573 21.5738C24.9152 21.0629 26.0116 20.7116 27.2463 20.52C28.481 20.3284 29.7369 20.2326 31.0142 20.2326C33.2069 20.2326 35.2292 20.3497 37.0813 20.5839C38.9546 20.7968 40.5618 21.0416 41.903 21.3183L41.5836 30.2592H41.1047C40.8492 29.1735 40.4128 28.0772 39.7955 26.9702C39.1994 25.842 38.4863 24.8308 37.656 23.9367C36.8258 23.0213 35.9104 22.2763 34.9099 21.7015C33.9094 21.1054 32.8876 20.8074 31.8444 20.8074C30.8226 20.8074 29.9392 21.0629 29.1941 21.5738C28.449 22.0847 28.0765 22.8298 28.0765 23.809C28.0765 24.4689 28.449 25.1076 29.1941 25.7249C29.9605 26.321 30.9184 26.9277 32.068 27.545C33.2175 28.1411 34.4522 28.7691 35.7721 29.429C37.0919 30.0676 38.3266 30.7701 39.4761 31.5365C40.6257 32.2816 41.573 33.1224 42.3181 34.0591C43.0844 34.9745 43.4676 35.9963 43.4676 37.1246Z"/>
</mask>
<path d="M43.4676 37.1246C43.4676 38.4231 43.1696 39.4981 42.5735 40.3497C41.9775 41.2012 41.1792 41.8824 40.1786 42.3933C39.1781 42.8829 38.0286 43.2235 36.73 43.4151C35.4314 43.628 34.0903 43.7344 32.7066 43.7344C31.6209 43.7344 30.5352 43.6812 29.4496 43.5748C28.3852 43.4896 27.3527 43.3725 26.3522 43.2235C25.3729 43.0745 24.4576 42.9148 23.606 42.7445C22.7545 42.5742 22.0201 42.4146 21.4028 42.2656L21.7221 33.3247H22.201C22.4565 34.4104 22.8929 35.5386 23.5103 36.7094C24.1276 37.859 24.8727 38.9127 25.7455 39.8707C26.6396 40.8286 27.6401 41.6163 28.7471 42.2336C29.854 42.851 31.0249 43.1597 32.2596 43.1597C33.4517 43.1597 34.3351 42.8723 34.9099 42.2975C35.4847 41.7014 35.7721 40.9564 35.7721 40.0623C35.7721 39.3598 35.3995 38.6892 34.6544 38.0506C33.9094 37.4119 32.9833 36.7733 31.8764 36.1347C30.7694 35.496 29.556 34.8468 28.2362 34.1868C26.9376 33.5269 25.7348 32.8244 24.6279 32.0793C23.5209 31.313 22.5949 30.4934 21.8498 29.6206C21.1047 28.7478 20.7322 27.7792 20.7322 26.7148C20.7322 25.4375 21.0302 24.3838 21.6263 23.5535C22.2223 22.7233 22.9993 22.0634 23.9573 21.5738C24.9152 21.0629 26.0116 20.7116 27.2463 20.52C28.481 20.3284 29.7369 20.2326 31.0142 20.2326C33.2069 20.2326 35.2292 20.3497 37.0813 20.5839C38.9546 20.7968 40.5618 21.0416 41.903 21.3183L41.5836 30.2592H41.1047C40.8492 29.1735 40.4128 28.0772 39.7955 26.9702C39.1994 25.842 38.4863 24.8308 37.656 23.9367C36.8258 23.0213 35.9104 22.2763 34.9099 21.7015C33.9094 21.1054 32.8876 20.8074 31.8444 20.8074C30.8226 20.8074 29.9392 21.0629 29.1941 21.5738C28.449 22.0847 28.0765 22.8298 28.0765 23.809C28.0765 24.4689 28.449 25.1076 29.1941 25.7249C29.9605 26.321 30.9184 26.9277 32.068 27.545C33.2175 28.1411 34.4522 28.7691 35.7721 29.429C37.0919 30.0676 38.3266 30.7701 39.4761 31.5365C40.6257 32.2816 41.573 33.1224 42.3181 34.0591C43.0844 34.9745 43.4676 35.9963 43.4676 37.1246Z" fill="#FE8084"/>
<path d="M42.5735 40.3497L42.0626 39.992L42.0626 39.992L42.5735 40.3497ZM40.1786 42.3933L40.4528 42.9536L40.4623 42.9487L40.1786 42.3933ZM36.73 43.4151L36.639 42.798L36.6291 42.7997L36.73 43.4151ZM29.4496 43.5748L29.5104 42.954L29.4993 42.9531L29.4496 43.5748ZM26.3522 43.2235L26.2584 43.8401L26.2603 43.8404L26.3522 43.2235ZM23.606 42.7445L23.7284 42.133L23.7284 42.133L23.606 42.7445ZM21.4028 42.2656L20.7795 42.2433L20.7613 42.7523L21.2564 42.8718L21.4028 42.2656ZM21.7221 33.3247V32.701H21.1203L21.0988 33.3024L21.7221 33.3247ZM22.201 33.3247L22.8081 33.1818L22.695 32.701H22.201V33.3247ZM23.5103 36.7094L22.9586 37.0003L22.9608 37.0045L23.5103 36.7094ZM25.7455 39.8707L25.2844 40.2907L25.2895 40.2962L25.7455 39.8707ZM28.7471 42.2336L29.0508 41.6889L29.0508 41.6889L28.7471 42.2336ZM34.9099 42.2975L35.351 42.7386L35.3588 42.7304L34.9099 42.2975ZM28.2362 34.1868L27.9536 34.7428L27.9572 34.7447L28.2362 34.1868ZM24.6279 32.0793L24.2728 32.5921L24.2796 32.5967L24.6279 32.0793ZM21.8498 29.6206L22.3241 29.2157L22.3241 29.2157L21.8498 29.6206ZM21.6263 23.5535L21.1197 23.1898L21.1197 23.1898L21.6263 23.5535ZM23.9573 21.5738L24.2412 22.1292L24.2508 22.1241L23.9573 21.5738ZM37.0813 20.5839L37.003 21.2027L37.0108 21.2036L37.0813 20.5839ZM41.903 21.3183L42.5262 21.3406L42.545 20.814L42.029 20.7075L41.903 21.3183ZM41.5836 30.2592V30.8829H42.1854L42.2069 30.2815L41.5836 30.2592ZM41.1047 30.2592L40.4976 30.4021L40.6107 30.8829H41.1047V30.2592ZM39.7955 26.9702L39.244 27.2616L39.2473 27.2678L39.2508 27.274L39.7955 26.9702ZM37.656 23.9367L37.194 24.3557L37.199 24.3611L37.656 23.9367ZM34.9099 21.7015L34.5907 22.2374L34.5992 22.2423L34.9099 21.7015ZM29.1941 21.5738L29.5468 22.0881L29.5468 22.0881L29.1941 21.5738ZM29.1941 25.7249L28.7962 26.2051L28.8036 26.2113L28.8112 26.2172L29.1941 25.7249ZM32.068 27.545L31.7729 28.0945L31.7809 28.0987L32.068 27.545ZM35.7721 29.429L35.4931 29.9869L35.5004 29.9904L35.7721 29.429ZM39.4761 31.5365L39.1302 32.0555L39.1369 32.0598L39.4761 31.5365ZM42.3181 34.0591L41.83 34.4473L41.8349 34.4535L41.8399 34.4595L42.3181 34.0591ZM42.8439 37.1246C42.8439 38.3273 42.5688 39.2689 42.0626 39.992L43.0845 40.7073C43.7704 39.7274 44.0913 38.5189 44.0913 37.1246H42.8439ZM42.0626 39.992C41.5297 40.7534 40.8123 41.3695 39.895 41.8379L40.4623 42.9487C41.5461 42.3953 42.4253 41.649 43.0845 40.7073L42.0626 39.992ZM39.9045 41.8331C38.971 42.29 37.885 42.6143 36.639 42.7981L36.821 44.0321C38.1722 43.8328 39.3853 43.4759 40.4528 42.9535L39.9045 41.8331ZM36.6291 42.7997C35.3656 43.0068 34.0582 43.1108 32.7066 43.1108V44.3581C34.1224 44.3581 35.4973 44.2492 36.8309 44.0306L36.6291 42.7997ZM32.7066 43.1108C31.6413 43.1108 30.576 43.0585 29.5104 42.9541L29.3887 44.1955C30.4945 44.3039 31.6005 44.3581 32.7066 44.3581V43.1108ZM29.4993 42.9531C28.4482 42.869 27.4298 42.7535 26.4441 42.6067L26.2603 43.8404C27.2756 43.9916 28.3221 44.1102 29.3998 44.1965L29.4993 42.9531ZM26.446 42.607C25.475 42.4592 24.5692 42.3012 23.7284 42.133L23.4837 43.3561C24.3459 43.5285 25.2709 43.6898 26.2584 43.8401L26.446 42.607ZM23.7284 42.133C22.8822 41.9638 22.1562 41.8059 21.5491 41.6593L21.2564 42.8718C21.884 43.0233 22.6269 43.1847 23.4837 43.3561L23.7284 42.133ZM22.026 42.2878L22.3453 33.3469L21.0988 33.3024L20.7795 42.2433L22.026 42.2878ZM21.7221 33.9483H22.201V32.701H21.7221V33.9483ZM21.594 33.4675C21.8635 34.6132 22.321 35.7911 22.9586 37.0003L24.0619 36.4186C23.4648 35.2861 23.0495 34.2075 22.8081 33.1818L21.594 33.4675ZM22.9608 37.0045C23.6022 38.1989 24.3769 39.2946 25.2845 40.2907L26.2065 39.4507C25.3684 38.5308 24.653 37.5191 24.0597 36.4144L22.9608 37.0045ZM25.2895 40.2962C26.2263 41.2999 27.2778 42.1283 28.4433 42.7783L29.0508 41.6889C28.0024 41.1042 27.0528 40.3573 26.2014 39.4451L25.2895 40.2962ZM28.4433 42.7783C29.6406 43.446 30.9156 43.7833 32.2596 43.7833V42.536C31.1341 42.536 30.0675 42.2559 29.0508 41.6889L28.4433 42.7783ZM32.2596 43.7833C33.5401 43.7833 34.6141 43.4753 35.3509 42.7385L34.4689 41.8565C34.0561 42.2693 33.3632 42.536 32.2596 42.536V43.7833ZM35.3588 42.7304C36.0552 42.0083 36.3957 41.1037 36.3957 40.0623H35.1484C35.1484 40.809 34.9142 41.3946 34.461 41.8646L35.3588 42.7304ZM36.3957 40.0623C36.3957 39.114 35.8865 38.2852 35.0603 37.5771L34.2486 38.5241C34.9125 39.0932 35.1484 39.6056 35.1484 40.0623H36.3957ZM35.0603 37.5771C34.2787 36.9071 33.319 36.2469 32.188 35.5945L31.5647 36.6749C32.6477 37.2997 33.54 37.9168 34.2486 38.5241L35.0603 37.5771ZM32.188 35.5945C31.0688 34.9488 29.8444 34.2936 28.5151 33.629L27.9572 34.7447C29.2677 35.3999 30.47 36.0433 31.5647 36.6749L32.188 35.5945ZM28.5187 33.6308C27.2408 32.9814 26.0602 32.2916 24.9761 31.5619L24.2796 32.5967C25.4095 33.3572 26.6344 34.0724 27.9536 34.7428L28.5187 33.6308ZM24.9829 31.5666C23.9127 30.8257 23.0288 30.0412 22.3241 29.2157L21.3755 30.0255C22.1609 30.9456 23.1291 31.8002 24.2729 32.5921L24.9829 31.5666ZM22.3241 29.2157C21.6673 28.4462 21.3559 27.6187 21.3559 26.7148H20.1085C20.1085 27.9397 20.5421 29.0493 21.3755 30.0255L22.3241 29.2157ZM21.3559 26.7148C21.3559 25.5351 21.6301 24.6176 22.1329 23.9173L21.1197 23.1898C20.4303 24.15 20.1085 25.3399 20.1085 26.7148H21.3559ZM22.1329 23.9173C22.668 23.172 23.3668 22.576 24.2411 22.1291L23.6735 21.0184C22.6318 21.5508 21.7767 22.2746 21.1197 23.1898L22.1329 23.9173ZM24.2508 22.1241C25.1384 21.6507 26.1661 21.3188 27.3419 21.1363L27.1506 19.9037C25.857 20.1045 24.6921 20.4751 23.6638 21.0235L24.2508 22.1241ZM27.3419 21.1363C28.5443 20.9497 29.7683 20.8563 31.0142 20.8563V19.609C29.7056 19.609 28.4177 19.7071 27.1506 19.9037L27.3419 21.1363ZM31.0142 20.8563C33.1851 20.8563 35.1809 20.9723 37.003 21.2026L37.1595 19.9651C35.2775 19.7272 33.2286 19.609 31.0142 19.609V20.8563ZM37.0108 21.2036C38.8719 21.4151 40.4596 21.6573 41.7769 21.9291L42.029 20.7075C40.6641 20.4259 39.0373 20.1785 37.1517 19.9642L37.0108 21.2036ZM41.2797 21.2961L40.9604 30.237L42.2069 30.2815L42.5262 21.3406L41.2797 21.2961ZM41.5836 29.6356H41.1047V30.8829H41.5836V29.6356ZM41.7118 30.1164C41.4414 28.9674 40.9819 27.8172 40.3401 26.6665L39.2508 27.274C39.8437 28.3372 40.257 29.3797 40.4976 30.4021L41.7118 30.1164ZM40.3469 26.6789C39.7265 25.5046 38.9821 24.4483 38.113 23.5124L37.199 24.3611C37.9904 25.2134 38.6723 26.1794 39.244 27.2616L40.3469 26.6789ZM38.118 23.5177C37.2471 22.5575 36.2815 21.7702 35.2206 21.1607L34.5992 22.2423C35.5394 22.7824 36.4045 23.4852 37.1941 24.3557L38.118 23.5177ZM35.2291 21.1657C34.1436 20.519 33.0126 20.1837 31.8444 20.1837V21.4311C32.7625 21.4311 33.6752 21.6919 34.5907 22.2373L35.2291 21.1657ZM31.8444 20.1837C30.7138 20.1837 29.7036 20.4682 28.8414 21.0594L29.5468 22.0881C30.1748 21.6575 30.9314 21.4311 31.8444 21.4311V20.1837ZM28.8414 21.0594C27.9106 21.6977 27.4528 22.6445 27.4528 23.809H28.7002C28.7002 23.0151 28.9874 22.4717 29.5468 22.0881L28.8414 21.0594ZM27.4528 23.809C27.4528 24.7283 27.9767 25.5261 28.7962 26.2051L29.592 25.2447C28.9214 24.689 28.7002 24.2095 28.7002 23.809H27.4528ZM28.8112 26.2172C29.6127 26.8406 30.6023 27.4658 31.7729 28.0945L32.363 26.9956C31.2346 26.3895 30.3082 25.8013 29.577 25.2326L28.8112 26.2172ZM31.7809 28.0987C32.9335 28.6963 34.1709 29.3257 35.4931 29.9868L36.051 28.8712C34.7335 28.2124 33.5015 27.5858 32.3551 26.9914L31.7809 28.0987ZM35.5004 29.9904C36.7961 30.6173 38.0058 31.3058 39.1302 32.0554L39.8221 31.0176C38.6474 30.2344 37.3877 29.5179 36.0437 28.8676L35.5004 29.9904ZM39.1369 32.0598C40.2379 32.7734 41.1325 33.5705 41.83 34.4473L42.8062 33.6709C42.0135 32.6744 41.0135 31.7897 39.8154 31.0131L39.1369 32.0598ZM41.8399 34.4595C42.5182 35.2696 42.8439 36.1516 42.8439 37.1246H44.0913C44.0913 35.841 43.6507 34.6793 42.7963 33.6587L41.8399 34.4595Z" fill="#FE8084" mask="url(#path-2-outside-1_1350_263)"/>
</svg>
