<svg width="68" height="79" viewBox="0 0 68 79" fill="none" xmlns="http://www.w3.org/2000/svg">
<path d="M13 45.6817C10.4225 45.1712 8.33085 44.2362 6.55063 43.427C4.70628 42.6561 2.98912 42.3349 2.92552 45.4184L1.78075 45.4827L0 33.0281L1.08117 32.8354C2.46117 37.4632 5.42223 43.1497 13 44.6128V45.6817Z" fill="black"/>
<path d="M46.8501 44.2478C45.9426 41.8761 44.5339 39.7523 42.7536 38.006L54.2451 24.7024C58.2847 20.0821 56.5025 18.2219 52.76 18.2219V17.4419H67.8489V18.2219C64.1064 18.2219 59.8886 20.0821 55.9085 24.7024L47.8294 34.0031L61.2279 54.2246C63.7229 57.5249 65.4456 58.665 68 58.665V59.445H56.6537L46.8501 44.2478Z" fill="black"/>
<path d="M41.2354 36.6787C39.3946 35.2468 37.26 34.1745 34.9374 33.5675L34.5227 23.5023C34.5227 19.362 32.7405 18.2219 30.3643 18.2219V17.4419H45.3938V18.2219C43.0176 18.2219 41.2354 19.362 41.2354 23.5023V36.6787Z" fill="black"/>
<path d="M32.1796 33.0796C31.6268 33.0269 31.0665 33 30.5 33H25.5038C24.3373 30.6459 21.8281 28.9777 17.9347 27.4312L12.4653 25.0543C5.91464 22.3562 1.20837 18.9515 1.27197 12.2705C1.39916 4.75441 7.94979 -0.0636048 15.3908 0.000634556C18.8855 0.0510654 21.1653 1.05157 23.0609 1.88343C23.58 2.11127 24.0704 2.32645 24.549 2.50601C26.0117 3.01992 27.6017 2.69872 27.6653 0.450319L28.6192 0.386079L29.0247 10.9134L28.0071 11.1062C26.0992 4.10398 22.8954 1.34968 15.5816 1.15696C10.6209 0.964243 7.5682 4.36897 7.5682 8.60882C7.5682 13.2341 10.3665 15.6752 16.154 18.0521L21.8142 20.5575C28.4285 23.3841 32.1808 27.0458 32.1808 32.8916C32.1808 32.9545 32.1804 33.0171 32.1796 33.0796Z" fill="black"/>
<path d="M10.7774 79V78.1899C13.245 78.1899 15.0957 77.006 15.0957 72.7064V41.6745C15.0957 37.3749 13.245 36.191 10.7774 36.191V35.3809H29.9631C40.2654 35.3809 43.7201 41.9238 43.7201 47.5319C43.7201 53.2024 39.957 59.5583 29.5313 59.5583L28.2358 59.7453C31.8138 59.7453 36.0088 60.1815 38.5381 64.8549L43.3499 73.2672C45.5091 77.006 47.4215 78.1899 50.1976 78.1899V79H38.7848L30.58 64.6057C29.0378 61.9262 26.8786 60.1192 23.7324 59.9322H22.0667V72.7064C22.0667 77.006 23.9175 78.1899 26.3851 78.1899V79H10.7774ZM22.0667 58.9352L27.8656 58.8729C34.2197 58.7483 36.6874 53.2024 36.6257 47.5943C36.564 42.0484 34.2197 36.4402 27.5572 36.4402H22.0667V58.9352Z" fill="black"/>
  <style>
    path { fill: #000; }
    @media (prefers-color-scheme: dark) {
        path { fill: #FFF; }
    }
  </style>
</svg>