<svg width="45" height="66" viewBox="0 0 45 66" fill="none" xmlns="http://www.w3.org/2000/svg">
<path fill-rule="evenodd" clip-rule="evenodd" d="M22.501 65.1098C34.9274 65.1098 45.001 50.5344 45.001 32.5548C45.001 14.5751 34.9274 -0.000244141 22.501 -0.000244141C10.0746 -0.000244141 0.000976562 14.5751 0.000976562 32.5548C0.000976562 50.5344 10.0746 65.1098 22.501 65.1098ZM22.5225 64.1624C34.4138 64.1624 44.0536 50.0401 44.0536 32.6194C44.0536 15.1986 34.4138 1.07631 22.5225 1.07631C10.6312 1.07631 0.991402 15.1986 0.991402 32.6194C0.991402 50.0401 10.6312 64.1624 22.5225 64.1624Z" fill="white" style="mix-blend-mode:difference"/>
<path d="M14.3407 35.1737C13.2308 34.9539 12.3301 34.5512 11.5634 34.2028C10.7692 33.8708 10.0298 33.7325 10.0024 35.0603L9.50944 35.088L8.7426 29.7248L9.20818 29.6418C9.80244 31.6347 11.0775 34.0834 14.3407 34.7134V35.1737Z" fill="white" style="mix-blend-mode:difference"/>
<path d="M28.9173 34.5562C28.5265 33.5349 27.9199 32.6204 27.1532 31.8684L32.1018 26.1396C33.8413 24.1499 33.0738 23.3489 31.4622 23.3489V23.013H37.9598V23.3489C36.3482 23.3489 34.532 24.1499 32.818 26.1396L29.339 30.1446L35.1087 38.8525C36.1831 40.2736 36.9249 40.7646 38.0249 40.7646V41.1005H33.1389L28.9173 34.5562Z" fill="white" style="mix-blend-mode:difference"/>
<path d="M26.4995 31.2968C25.7068 30.6802 24.7876 30.2185 23.7874 29.9571L23.6088 25.6228C23.6088 23.8399 22.8414 23.3489 21.8182 23.3489V23.013H28.2902V23.3489C27.2669 23.3489 26.4995 23.8399 26.4995 25.6228V31.2968Z" fill="white" style="mix-blend-mode:difference"/>
<path d="M22.5998 29.7469C22.3618 29.7243 22.1205 29.7127 21.8766 29.7127H19.7251C19.2228 28.6989 18.1423 27.9806 16.4657 27.3146L14.1104 26.2911C11.2896 25.1292 9.26295 23.6631 9.29034 20.7861C9.34511 17.5495 12.166 15.4748 15.3702 15.5024C16.8751 15.5241 17.8569 15.955 18.6731 16.3132C18.8967 16.4113 19.1078 16.504 19.3139 16.5813C19.9438 16.8026 20.6285 16.6643 20.6559 15.6961L21.0667 15.6684L21.2413 20.2017L20.8031 20.2847C19.9815 17.2694 18.6019 16.0834 15.4524 16.0004C13.3162 15.9174 12.0016 17.3835 12.0016 19.2093C12.0016 21.2011 13.2067 22.2523 15.6989 23.2758L18.1363 24.3547C20.9845 25.5718 22.6003 27.1487 22.6003 29.666C22.6003 29.6931 22.6002 29.7201 22.5998 29.7469Z" fill="white" style="mix-blend-mode:difference"/>
<path d="M13.3836 49.5213V49.1725C14.4462 49.1725 15.2432 48.6626 15.2432 46.8111V33.4481C15.2432 31.5966 14.4462 31.0868 13.3836 31.0868V30.738H21.6454C26.0818 30.738 27.5694 33.5555 27.5694 35.9705C27.5694 38.4123 25.9489 41.1493 21.4594 41.1493L20.9016 41.2298C22.4423 41.2298 24.2488 41.4176 25.338 43.4301L27.41 47.0526C28.3398 48.6626 29.1633 49.1725 30.3588 49.1725V49.5213H25.4442L21.911 43.3228C21.2469 42.169 20.3171 41.3908 18.9623 41.3103H18.245V46.8111C18.245 48.6626 19.042 49.1725 20.1046 49.1725V49.5213H13.3836ZM18.245 40.881L20.7422 40.8541C23.4784 40.8005 24.541 38.4123 24.5144 35.9973C24.4879 33.6091 23.4784 31.1941 20.6093 31.1941H18.245V40.881Z" fill="white" style="mix-blend-mode:difference"/>
</svg>
