<svg width="400" height="400" viewBox="0 0 400 400" fill="none" xmlns="http://www.w3.org/2000/svg">
<g clip-path="url(#clip0_668_4008)">
<path d="M200 0C310.457 0 400 89.5431 400 200C400 310.457 310.457 400 200 400C89.5431 400 0 310.457 0 200C0 89.5431 89.5431 0 200 0ZM124.999 182.81V185.601C133.5 185.601 139.876 189.679 139.876 204.491V311.396C139.876 326.207 133.5 330.286 124.999 330.286V333.076H178.767V330.286C170.266 330.286 163.891 326.207 163.891 311.396V267.389H169.629C180.467 268.033 187.906 274.258 193.219 283.488L221.484 333.076H260.801V330.286C251.237 330.286 244.649 326.207 237.211 313.327L220.634 284.348C211.92 268.248 197.469 266.744 185.143 266.744L189.605 266.101C225.522 266.101 238.485 244.205 238.485 224.67C238.485 205.35 226.585 182.81 191.094 182.81H124.999ZM269.628 121.01V123.697C282.521 123.697 288.66 130.105 274.744 146.022L235.156 191.854C241.289 197.869 246.142 205.186 249.269 213.356L283.042 265.71H322.13V263.023C313.33 263.023 307.395 259.096 298.8 247.727L252.643 178.063L280.475 146.022C294.186 130.106 308.717 123.697 321.609 123.697V121.01H269.628ZM182.805 186.459C205.757 186.459 213.833 205.779 214.046 224.885C214.258 244.205 205.757 263.31 183.867 263.739L163.891 263.954V186.459H182.805ZM87.8711 174.704L94.0059 217.61L97.9492 217.389C98.1684 206.766 104.084 207.873 110.438 210.528C116.57 213.316 123.777 216.537 132.656 218.296V214.613C106.551 209.573 96.3498 189.984 91.5957 174.041L87.8711 174.704ZM192.476 121.01V123.697C200.661 123.697 206.801 127.625 206.801 141.889L208.229 176.562C216.231 178.654 223.584 182.347 229.926 187.28V141.889C229.926 127.625 236.066 123.697 244.252 123.697V121.01H192.476ZM140.892 60.9258C115.258 60.7047 92.6911 77.3027 92.2529 103.195C92.0339 126.211 108.247 137.941 130.813 147.235L149.656 155.423C163.068 160.751 171.712 166.498 175.73 174.607H192.943C194.895 174.607 196.825 174.701 198.729 174.882C198.731 174.667 198.733 174.451 198.733 174.234C198.733 154.096 185.806 141.481 163.021 131.743L143.521 123.112C123.584 114.924 113.944 106.515 113.943 90.5811C113.943 75.975 124.46 64.2455 141.549 64.9092C166.745 65.5731 177.782 75.0616 184.354 99.1836L187.86 98.5195L186.464 62.2539L183.178 62.4746C182.959 70.2203 177.481 71.3271 172.441 69.5566C170.793 68.9381 169.104 68.1969 167.315 67.4121C160.785 64.5464 152.931 61.0995 140.892 60.9258Z" fill="white"/>
</g>
<defs>
<clipPath id="clip0_668_4008">
<rect width="400" height="400" fill="white"/>
</clipPath>
</defs>
</svg>
