<svg width="1280" height="508" viewBox="0 0 1280 508" fill="none" xmlns="http://www.w3.org/2000/svg">
<g opacity="0.8">
<path d="M377.034 315.792C377.034 336.613 372.255 353.851 362.698 367.504C353.141 381.157 340.341 392.08 324.298 400.272C308.255 408.123 289.823 413.584 269.002 416.656C248.181 420.069 226.677 421.776 204.49 421.776C187.082 421.776 169.674 420.923 152.266 419.216C135.199 417.851 118.645 415.973 102.602 413.584C86.9007 411.195 72.2233 408.635 58.57 405.904C44.9167 403.173 33.1407 400.613 23.242 398.224L28.362 254.864H36.042C40.138 272.272 47.1353 290.363 57.034 309.136C66.9327 327.568 78.8793 344.464 92.874 359.824C107.21 375.184 123.253 387.813 141.002 397.712C158.751 407.611 177.525 412.56 197.322 412.56C216.437 412.56 230.602 407.952 239.818 398.736C249.034 389.179 253.642 377.232 253.642 362.896C253.642 351.632 247.669 340.88 235.722 330.64C223.775 320.4 208.927 310.16 191.178 299.92C173.429 289.68 153.973 279.269 132.81 268.688C111.989 258.107 92.7033 246.843 74.954 234.896C57.2047 222.608 42.3567 209.467 30.41 195.472C18.4633 181.477 12.49 165.947 12.49 148.88C12.49 128.4 17.2687 111.504 26.826 98.192C36.3833 84.88 48.842 74.2987 64.202 66.448C79.562 58.256 97.1407 52.624 116.938 49.552C136.735 46.48 156.874 44.944 177.354 44.944C212.511 44.944 244.938 46.8213 274.634 50.576C304.671 53.9893 330.442 57.9147 351.946 62.352L346.826 205.712H339.146C335.05 188.304 328.053 170.725 318.154 152.976C308.597 134.885 297.162 118.672 283.85 104.336C270.538 89.6587 255.861 77.712 239.818 68.496C223.775 58.9386 207.391 54.16 190.666 54.16C174.282 54.16 160.117 58.256 148.17 66.448C136.223 74.64 130.25 86.5867 130.25 102.288C130.25 112.869 136.223 123.109 148.17 133.008C160.458 142.565 175.818 152.293 194.25 162.192C212.682 171.749 232.479 181.819 253.642 192.4C274.805 202.64 294.602 213.904 313.034 226.192C331.466 238.139 346.655 251.621 358.602 266.64C370.89 281.317 377.034 297.701 377.034 315.792ZM551.09 64.4V397.2L586.93 402.32V410H397.49V402.32L433.33 397.2V64.4L397.49 59.28V51.6H686.258C704.349 51.6 720.733 53.9893 735.41 58.768C750.429 63.5466 763.229 70.2026 773.81 78.736C784.733 87.2693 793.095 97.5093 798.898 109.456C805.042 121.061 808.114 133.861 808.114 147.856C808.114 163.899 804.189 177.381 796.338 188.304C788.487 199.227 779.442 208.101 769.202 214.928C758.962 221.755 749.063 226.875 739.506 230.288C729.949 233.701 723.463 235.92 720.05 236.944L826.546 468.368L823.474 469.904C809.821 465.467 794.802 458.811 778.418 449.936C762.375 441.061 745.821 430.48 728.754 418.192C711.687 405.904 694.621 392.08 677.554 376.72C660.487 361.36 644.445 345.147 629.426 328.08C614.749 310.672 601.437 292.581 589.49 273.808C577.543 254.693 568.157 235.579 561.33 216.464C575.666 215.44 590.514 213.392 605.874 210.32C621.234 206.907 635.058 202.128 647.346 195.984C659.975 189.84 670.215 181.989 678.066 172.432C686.258 162.875 690.354 151.269 690.354 137.616C690.354 130.448 688.989 122.768 686.258 114.576C683.527 106.043 679.09 98.0213 672.946 90.512C666.802 83.0027 658.781 76.8587 648.882 72.08C639.325 66.96 627.549 64.4 613.554 64.4H551.09ZM1059.45 402.32L1094.78 397.2L989.818 228.24L1133.69 67.472L1084.03 59.28V51.6H1188.47V59.28L1153.15 67.472L1078.39 150.928L1231.99 397.2L1267.32 402.32V410H1059.45V402.32ZM980.09 397.2L1015.93 402.32V410H826.49V402.32L862.33 397.2V64.4L826.49 59.28V51.6H1015.93V59.28L980.09 64.4V397.2Z" fill="url(#paint0_linear_1303_241)" fill-opacity="0.9"/>
<path d="M362.698 367.504L361.879 366.931L361.879 366.931L362.698 367.504ZM324.298 400.272L324.738 401.17L324.745 401.166L324.753 401.163L324.298 400.272ZM269.002 416.656L268.856 415.667L268.848 415.668L268.84 415.669L269.002 416.656ZM152.266 419.216L152.364 418.221L152.355 418.22L152.346 418.219L152.266 419.216ZM102.602 413.584L102.452 414.573L102.455 414.573L102.602 413.584ZM58.57 405.904L58.7661 404.923L58.7661 404.923L58.57 405.904ZM23.242 398.224L22.2426 398.188L22.2135 399.004L23.0074 399.196L23.242 398.224ZM28.362 254.864V253.864H27.3971L27.3626 254.828L28.362 254.864ZM36.042 254.864L37.0154 254.635L36.834 253.864H36.042V254.864ZM57.034 309.136L56.1494 309.602L56.153 309.609L57.034 309.136ZM92.874 359.824L92.1348 360.498L92.1429 360.506L92.874 359.824ZM141.002 397.712L141.489 396.839L141.489 396.839L141.002 397.712ZM239.818 398.736L240.525 399.443L240.532 399.437L240.538 399.43L239.818 398.736ZM132.81 268.688L132.357 269.579L132.363 269.582L132.81 268.688ZM74.954 234.896L74.3847 235.718L74.3956 235.726L74.954 234.896ZM30.41 195.472L31.1706 194.823L31.1706 194.823L30.41 195.472ZM26.826 98.192L26.0137 97.6088L26.0137 97.6088L26.826 98.192ZM64.202 66.448L64.6571 67.3384L64.6649 67.3345L64.6726 67.3304L64.202 66.448ZM274.634 50.576L274.509 51.5682L274.521 51.5696L274.634 50.576ZM351.946 62.352L352.945 62.3877L352.976 61.5434L352.148 61.3726L351.946 62.352ZM346.826 205.712V206.712H347.791L347.825 205.748L346.826 205.712ZM339.146 205.712L338.173 205.941L338.354 206.712H339.146V205.712ZM318.154 152.976L317.27 153.443L317.275 153.453L317.281 153.463L318.154 152.976ZM283.85 104.336L283.109 105.008L283.117 105.016L283.85 104.336ZM239.818 68.496L239.306 69.3551L239.313 69.3591L239.32 69.3631L239.818 68.496ZM148.17 66.448L148.736 67.2727L148.736 67.2727L148.17 66.448ZM148.17 133.008L147.532 133.778L147.544 133.788L147.556 133.797L148.17 133.008ZM194.25 162.192L193.777 163.073L193.783 163.076L193.79 163.08L194.25 162.192ZM253.642 192.4L253.195 193.294L253.206 193.3L253.642 192.4ZM313.034 226.192L312.479 227.024L312.49 227.031L313.034 226.192ZM358.602 266.64L357.819 267.263L357.827 267.272L357.835 267.282L358.602 266.64ZM376.034 315.792C376.034 336.46 371.292 353.483 361.879 366.931L363.517 368.077C373.219 354.218 378.034 336.767 378.034 315.792H376.034ZM361.879 366.931C352.423 380.439 339.752 391.258 323.843 399.381L324.753 401.163C340.929 392.902 353.859 381.875 363.517 368.077L361.879 366.931ZM323.858 399.374C307.923 407.172 289.593 412.607 268.856 415.667L269.148 417.645C290.054 414.561 308.588 409.073 324.738 401.17L323.858 399.374ZM268.84 415.669C248.075 419.073 226.625 420.776 204.49 420.776V422.776C226.728 422.776 248.286 421.065 269.164 417.643L268.84 415.669ZM204.49 420.776C187.115 420.776 169.739 419.924 152.364 418.221L152.168 420.211C169.609 421.921 187.049 422.776 204.49 422.776V420.776ZM152.346 418.219C135.3 416.856 118.768 414.981 102.749 412.595L102.455 414.573C118.521 416.966 135.098 418.846 152.186 420.213L152.346 418.219ZM102.752 412.595C87.0643 410.208 72.4024 407.651 58.7661 404.923L58.3739 406.885C72.0443 409.619 86.737 412.181 102.452 414.573L102.752 412.595ZM58.7661 404.923C45.1214 402.194 33.3589 399.637 23.4766 397.252L23.0074 399.196C32.9225 401.589 44.712 404.152 58.3739 406.885L58.7661 404.923ZM24.2414 398.26L29.3614 254.9L27.3626 254.828L22.2426 398.188L24.2414 398.26ZM28.362 255.864H36.042V253.864H28.362V255.864ZM35.0686 255.093C39.1872 272.597 46.2183 290.768 56.1494 309.602L57.9186 308.67C48.0523 289.958 41.0888 271.947 37.0154 254.635L35.0686 255.093ZM56.153 309.609C66.0903 328.113 78.0844 345.076 92.1348 360.497L93.6132 359.151C79.6742 343.852 67.7751 327.023 57.915 308.663L56.153 309.609ZM92.1429 360.506C106.547 375.94 122.672 388.634 140.515 398.585L141.489 396.839C123.834 386.992 107.873 374.428 93.6051 359.142L92.1429 360.506ZM140.515 398.585C158.409 408.565 177.35 413.56 197.322 413.56V411.56C177.7 411.56 159.094 406.657 141.489 396.839L140.515 398.585ZM197.322 413.56C216.579 413.56 231.049 408.919 240.525 399.443L239.111 398.029C230.155 406.985 216.295 411.56 197.322 411.56V413.56ZM240.538 399.43C249.949 389.671 254.642 377.468 254.642 362.896H252.642C252.642 376.996 248.119 388.687 239.098 398.042L240.538 399.43ZM254.642 362.896C254.642 351.238 248.45 340.232 236.373 329.881L235.071 331.399C246.888 341.528 252.642 352.026 252.642 362.896H254.642ZM236.373 329.881C224.368 319.591 209.466 309.316 191.678 299.054L190.678 300.786C208.389 311.004 223.183 321.209 235.071 331.399L236.373 329.881ZM191.678 299.054C173.909 288.803 154.435 278.382 133.257 267.794L132.363 269.582C153.51 280.156 172.949 290.557 190.678 300.786L191.678 299.054ZM133.263 267.797C112.475 257.232 93.225 245.988 75.5124 234.066L74.3956 235.726C92.1817 247.697 111.503 258.981 132.357 269.579L133.263 267.797ZM75.5232 234.074C57.8329 221.827 43.0525 208.742 31.1706 194.823L29.6494 196.121C41.6608 210.192 56.5764 223.389 74.3848 235.718L75.5232 234.074ZM31.1706 194.823C19.3654 180.994 13.49 165.689 13.49 148.88H11.49C11.49 166.204 17.5613 181.961 29.6494 196.121L31.1706 194.823ZM13.49 148.88C13.49 128.556 18.2306 111.879 27.6383 98.7752L26.0137 97.6088C16.3068 111.129 11.49 128.243 11.49 148.88H13.49ZM27.6383 98.7752C37.0978 85.5994 49.4313 75.1205 64.6571 67.3384L63.7469 65.5576C48.2527 73.4768 35.6688 84.1606 26.0137 97.6088L27.6383 98.7752ZM64.6726 67.3304C79.9198 59.1985 97.3885 53.5975 117.091 50.5401L116.785 48.5638C96.8928 51.6505 79.2042 57.3135 63.7314 65.5656L64.6726 67.3304ZM117.091 50.5401C136.837 47.4762 156.924 45.944 177.354 45.944V43.944C156.824 43.944 136.634 45.4838 116.785 48.5638L117.091 50.5401ZM177.354 45.944C212.476 45.944 244.861 47.8195 274.509 51.5681L274.759 49.5839C245.015 45.8231 212.546 43.944 177.354 43.944V45.944ZM274.521 51.5696C304.539 54.9807 330.278 58.9019 351.744 63.3314L352.148 61.3726C330.606 56.9274 304.804 52.9979 274.747 49.5824L274.521 51.5696ZM350.947 62.3163L345.827 205.676L347.825 205.748L352.945 62.3877L350.947 62.3163ZM346.826 204.712H339.146V206.712H346.826V204.712ZM340.119 205.483C336 187.973 328.965 170.308 319.027 152.489L317.281 153.463C327.14 171.142 334.1 188.635 338.173 205.941L340.119 205.483ZM319.038 152.509C309.442 134.344 297.957 118.059 284.583 103.656L283.117 105.016C296.367 119.285 307.752 135.426 317.27 153.443L319.038 152.509ZM284.591 103.664C271.214 88.915 256.456 76.9005 240.316 67.6289L239.32 69.3631C255.266 78.5235 269.862 90.4023 283.109 105.008L284.591 103.664ZM240.33 67.6369C224.151 57.9983 207.592 53.16 190.666 53.16V55.16C207.191 55.16 223.4 59.8789 239.306 69.3551L240.33 67.6369ZM190.666 53.16C174.108 53.16 159.739 57.3025 147.604 65.6233L148.736 67.2727C160.494 59.2095 174.456 55.16 190.666 55.16V53.16ZM147.604 65.6233C135.36 74.0194 129.25 86.2895 129.25 102.288H131.25C131.25 86.8838 137.087 75.2605 148.736 67.2727L147.604 65.6233ZM129.25 102.288C129.25 113.285 135.466 123.78 147.532 133.778L148.808 132.238C136.981 122.438 131.25 112.453 131.25 102.288H129.25ZM147.556 133.797C159.9 143.399 175.311 153.156 193.777 163.073L194.723 161.311C176.325 151.43 161.016 141.732 148.784 132.219L147.556 133.797ZM193.79 163.08C212.227 172.64 232.028 182.711 253.195 193.294L254.089 191.506C232.93 180.926 213.137 170.859 194.71 161.304L193.79 163.08ZM253.206 193.3C274.33 203.521 294.088 214.763 312.479 227.024L313.589 225.36C295.116 213.045 275.279 201.759 254.078 191.5L253.206 193.3ZM312.49 227.031C330.844 238.927 345.949 252.34 357.819 267.263L359.385 266.017C347.362 250.903 332.088 237.35 313.578 225.353L312.49 227.031ZM357.835 267.282C369.982 281.791 376.034 297.95 376.034 315.792H378.034C378.034 297.452 371.798 280.844 359.369 265.998L357.835 267.282ZM551.09 64.4V63.4H550.09V64.4H551.09ZM551.09 397.2H550.09V398.067L550.949 398.19L551.09 397.2ZM586.93 402.32H587.93V401.453L587.071 401.33L586.93 402.32ZM586.93 410V411H587.93V410H586.93ZM397.49 410H396.49V411H397.49V410ZM397.49 402.32L397.349 401.33L396.49 401.453V402.32H397.49ZM433.33 397.2L433.471 398.19L434.33 398.067V397.2H433.33ZM433.33 64.4H434.33V63.5327L433.471 63.41L433.33 64.4ZM397.49 59.28H396.49V60.1473L397.349 60.2699L397.49 59.28ZM397.49 51.6V50.6H396.49V51.6H397.49ZM735.41 58.768L735.1 59.7189L735.107 59.7209L735.41 58.768ZM773.81 78.736L773.182 79.5144L773.188 79.5193L773.194 79.524L773.81 78.736ZM798.898 109.456L797.999 109.893L798.006 109.909L798.014 109.924L798.898 109.456ZM769.202 214.928L769.757 215.76L769.757 215.76L769.202 214.928ZM739.506 230.288L739.842 231.23L739.842 231.23L739.506 230.288ZM720.05 236.944L719.763 235.986L718.661 236.317L719.142 237.362L720.05 236.944ZM826.546 468.368L826.993 469.262L827.859 468.829L827.454 467.95L826.546 468.368ZM823.474 469.904L823.165 470.855L823.555 470.982L823.921 470.798L823.474 469.904ZM778.418 449.936L777.934 450.811L777.942 450.815L778.418 449.936ZM728.754 418.192L729.338 417.38L729.338 417.38L728.754 418.192ZM677.554 376.72L678.223 375.977L677.554 376.72ZM629.426 328.08L628.661 328.725L628.668 328.733L628.675 328.741L629.426 328.08ZM589.49 273.808L588.642 274.338L588.646 274.345L589.49 273.808ZM561.33 216.464L561.259 215.467L559.945 215.56L560.388 216.8L561.33 216.464ZM605.874 210.32L606.07 211.301L606.081 211.298L606.091 211.296L605.874 210.32ZM647.346 195.984L646.909 195.085L646.899 195.09L647.346 195.984ZM678.066 172.432L677.307 171.781L677.3 171.789L677.293 171.797L678.066 172.432ZM686.258 114.576L685.306 114.881L685.309 114.892L686.258 114.576ZM672.946 90.512L672.172 91.1452L672.172 91.1452L672.946 90.512ZM648.882 72.08L648.41 72.9615L648.428 72.9714L648.447 72.9805L648.882 72.08ZM550.09 64.4V397.2H552.09V64.4H550.09ZM550.949 398.19L586.789 403.31L587.071 401.33L551.231 396.21L550.949 398.19ZM585.93 402.32V410H587.93V402.32H585.93ZM586.93 409H397.49V411H586.93V409ZM398.49 410V402.32H396.49V410H398.49ZM397.631 403.31L433.471 398.19L433.189 396.21L397.349 401.33L397.631 403.31ZM434.33 397.2V64.4H432.33V397.2H434.33ZM433.471 63.41L397.631 58.29L397.349 60.2699L433.189 65.3899L433.471 63.41ZM398.49 59.28V51.6H396.49V59.28H398.49ZM397.49 52.6H686.258V50.6H397.49V52.6ZM686.258 52.6C704.261 52.6 720.539 54.9778 735.1 59.7188L735.72 57.8171C720.927 53.0008 704.436 50.6 686.258 50.6V52.6ZM735.107 59.7209C750.026 64.4679 762.711 71.0702 773.182 79.5144L774.438 77.9576C763.746 69.3351 750.831 62.6254 735.713 57.815L735.107 59.7209ZM773.194 79.524C784.002 87.9677 792.265 98.0894 797.999 109.893L799.798 109.019C793.925 96.9292 785.463 86.5709 774.426 77.948L773.194 79.524ZM798.014 109.924C804.077 121.376 807.114 134.013 807.114 147.856H809.114C809.114 133.709 806.007 120.747 799.782 108.988L798.014 109.924ZM807.114 147.856C807.114 163.731 803.232 176.999 795.526 187.72L797.15 188.888C805.145 177.764 809.114 164.067 809.114 147.856H807.114ZM795.526 187.72C787.739 198.555 778.778 207.342 768.647 214.096L769.757 215.76C780.106 208.861 789.236 199.899 797.15 188.888L795.526 187.72ZM768.647 214.096C758.461 220.886 748.636 225.966 739.17 229.346L739.842 231.23C749.491 227.784 759.463 222.623 769.757 215.76L768.647 214.096ZM739.17 229.346C729.609 232.761 723.148 234.971 719.763 235.986L720.337 237.902C723.779 236.869 730.288 234.642 739.842 231.23L739.17 229.346ZM719.142 237.362L825.638 468.786L827.454 467.95L720.958 236.526L719.142 237.362ZM826.099 467.474L823.027 469.01L823.921 470.798L826.993 469.262L826.099 467.474ZM823.783 468.953C810.202 464.539 795.24 457.91 778.894 449.057L777.942 450.815C794.364 459.711 809.44 466.394 823.165 470.855L823.783 468.953ZM778.902 449.061C762.899 440.208 746.377 429.649 729.338 417.38L728.17 419.004C745.264 431.311 761.852 441.915 777.934 450.811L778.902 449.061ZM729.338 417.38C712.304 405.115 695.265 391.315 678.223 375.977L676.885 377.463C693.976 392.845 711.071 406.693 728.17 419.004L729.338 417.38ZM678.223 375.977C661.185 360.642 645.17 344.457 630.177 327.419L628.675 328.741C643.72 345.837 659.79 362.078 676.885 377.463L678.223 375.977ZM630.191 327.435C615.541 310.061 602.256 292.006 590.334 273.271L588.646 274.345C600.618 293.157 613.956 311.283 628.661 328.725L630.191 327.435ZM590.338 273.278C578.425 254.218 569.072 235.168 562.272 216.128L560.388 216.8C567.242 235.99 576.661 255.169 588.642 274.338L590.338 273.278ZM561.401 217.461C575.783 216.434 590.673 214.38 606.07 211.301L605.678 209.339C590.355 212.404 575.549 214.446 561.259 215.467L561.401 217.461ZM606.091 211.296C621.519 207.868 635.422 203.064 647.793 196.878L646.899 195.09C634.694 201.192 620.949 205.946 605.657 209.344L606.091 211.296ZM647.783 196.883C660.525 190.685 670.885 182.75 678.839 173.067L677.293 171.797C669.546 181.229 659.426 188.995 646.909 195.085L647.783 196.883ZM678.825 173.083C687.186 163.328 691.354 151.486 691.354 137.616H689.354C689.354 151.052 685.33 162.421 677.307 171.781L678.825 173.083ZM691.354 137.616C691.354 130.321 689.965 122.534 687.207 114.26L685.309 114.892C688.013 123.002 689.354 130.575 689.354 137.616H691.354ZM687.21 114.271C684.438 105.609 679.937 97.4773 673.72 89.8788L672.172 91.1452C678.243 98.5654 682.616 106.477 685.306 114.881L687.21 114.271ZM673.72 89.8788C667.472 82.2426 659.329 76.013 649.317 71.1794L648.447 72.9805C658.232 77.7043 666.132 83.7627 672.172 91.1452L673.72 89.8788ZM649.354 71.1985C639.616 65.9813 627.667 63.4 613.554 63.4V65.4C627.43 65.4 639.034 67.9386 648.41 72.9615L649.354 71.1985ZM613.554 63.4H551.09V65.4H613.554V63.4ZM1059.45 402.32L1059.31 401.33L1058.45 401.454V402.32H1059.45ZM1094.78 397.2L1094.92 398.19L1096.43 397.97L1095.63 396.672L1094.78 397.2ZM989.818 228.24L989.073 227.573L988.573 228.131L988.969 228.768L989.818 228.24ZM1133.69 67.472L1134.44 68.1388L1135.65 66.7817L1133.85 66.4853L1133.69 67.472ZM1084.03 59.28H1083.03V60.1285L1083.86 60.2666L1084.03 59.28ZM1084.03 51.6V50.6H1083.03V51.6H1084.03ZM1188.47 51.6H1189.47V50.6H1188.47V51.6ZM1188.47 59.28L1188.7 60.2541L1189.47 60.0746V59.28H1188.47ZM1153.15 67.472L1152.92 66.4978L1152.61 66.5693L1152.4 66.8048L1153.15 67.472ZM1078.39 150.928L1077.65 150.261L1077.15 150.82L1077.55 151.457L1078.39 150.928ZM1231.99 397.2L1231.15 397.729L1231.39 398.123L1231.85 398.19L1231.99 397.2ZM1267.32 402.32H1268.32V401.454L1267.47 401.33L1267.32 402.32ZM1267.32 410V411H1268.32V410H1267.32ZM1059.45 410H1058.45V411H1059.45V410ZM980.09 397.2H979.09V398.067L979.949 398.19L980.09 397.2ZM1015.93 402.32H1016.93V401.453L1016.07 401.33L1015.93 402.32ZM1015.93 410V411H1016.93V410H1015.93ZM826.49 410H825.49V411H826.49V410ZM826.49 402.32L826.349 401.33L825.49 401.453V402.32H826.49ZM862.33 397.2L862.471 398.19L863.33 398.067V397.2H862.33ZM862.33 64.4H863.33V63.5327L862.471 63.41L862.33 64.4ZM826.49 59.28H825.49V60.1473L826.349 60.2699L826.49 59.28ZM826.49 51.6V50.6H825.49V51.6H826.49ZM1015.93 51.6H1016.93V50.6H1015.93V51.6ZM1015.93 59.28L1016.07 60.2699L1016.93 60.1473V59.28H1015.93ZM980.09 64.4L979.949 63.41L979.09 63.5327V64.4H980.09ZM1059.59 403.31L1094.92 398.19L1094.63 396.21L1059.31 401.33L1059.59 403.31ZM1095.63 396.672L990.667 227.712L988.969 228.768L1093.93 397.728L1095.63 396.672ZM990.563 228.907L1134.44 68.1388L1132.94 66.8051L989.073 227.573L990.563 228.907ZM1133.85 66.4853L1084.19 58.2933L1083.86 60.2666L1133.53 68.4587L1133.85 66.4853ZM1085.03 59.28V51.6H1083.03V59.28H1085.03ZM1084.03 52.6H1188.47V50.6H1084.03V52.6ZM1187.47 51.6V59.28H1189.47V51.6H1187.47ZM1188.25 58.3058L1152.92 66.4978L1153.37 68.4461L1188.7 60.2541L1188.25 58.3058ZM1152.4 66.8048L1077.65 150.261L1079.14 151.595L1153.89 68.1392L1152.4 66.8048ZM1077.55 151.457L1231.15 397.729L1232.84 396.671L1079.24 150.399L1077.55 151.457ZM1231.85 398.19L1267.18 403.31L1267.47 401.33L1232.14 396.21L1231.85 398.19ZM1266.32 402.32V410H1268.32V402.32H1266.32ZM1267.32 409H1059.45V411H1267.32V409ZM1060.45 410V402.32H1058.45V410H1060.45ZM979.949 398.19L1015.79 403.31L1016.07 401.33L980.231 396.21L979.949 398.19ZM1014.93 402.32V410H1016.93V402.32H1014.93ZM1015.93 409H826.49V411H1015.93V409ZM827.49 410V402.32H825.49V410H827.49ZM826.631 403.31L862.471 398.19L862.189 396.21L826.349 401.33L826.631 403.31ZM863.33 397.2V64.4H861.33V397.2H863.33ZM862.471 63.41L826.631 58.29L826.349 60.2699L862.189 65.3899L862.471 63.41ZM827.49 59.28V51.6H825.49V59.28H827.49ZM826.49 52.6H1015.93V50.6H826.49V52.6ZM1014.93 51.6V59.28H1016.93V51.6H1014.93ZM1015.79 58.29L979.949 63.41L980.231 65.3899L1016.07 60.2699L1015.79 58.29ZM979.09 64.4V397.2H981.09V64.4H979.09Z" fill="url(#paint1_linear_1303_241)"/>
</g>
<defs>
<linearGradient id="paint0_linear_1303_241" x1="0" y1="0" x2="845.592" y2="520.839" gradientUnits="userSpaceOnUse">
<stop stop-color="#6D597A"/>
<stop offset="1" stop-color="#6D597A" stop-opacity="0"/>
</linearGradient>
<linearGradient id="paint1_linear_1303_241" x1="1280" y1="508" x2="8.00658" y2="-19.3136" gradientUnits="userSpaceOnUse">
<stop stop-color="#B56576"/>
<stop offset="1" stop-color="#6D597A"/>
</linearGradient>
</defs>
</svg>
