<svg width="236" height="274" viewBox="0 0 236 274" fill="none" xmlns="http://www.w3.org/2000/svg">
<path d="M45.6553 158.296C36.7759 156.537 29.5702 153.316 23.4374 150.528C17.0836 147.873 11.1681 146.766 10.949 157.389L7.00526 157.61L0.870605 114.705L4.59521 114.041C9.34929 129.983 19.5501 149.573 45.6553 154.614V158.296Z" fill="white" style="mix-blend-mode:difference"/>
<path d="M162.268 153.356C159.142 145.186 154.289 137.869 148.156 131.853L187.744 86.0227C201.66 70.1057 195.521 63.6975 182.628 63.6975V61.0102H234.608V63.6975C221.716 63.6975 207.186 70.1057 193.474 86.0227L165.642 118.063L211.799 187.726C220.394 199.095 226.329 203.023 235.129 203.023V205.71H196.041L162.268 153.356Z" fill="white" style="mix-blend-mode:difference"/>
<path d="M142.926 127.281C136.584 122.348 129.231 118.654 121.229 116.563L119.8 81.8884C119.8 67.6251 113.661 63.6975 105.475 63.6975V61.0102H157.251V63.6975C149.065 63.6975 142.926 67.6251 142.926 81.8884V127.281Z" fill="white" style="mix-blend-mode:difference"/>
<path d="M111.729 114.882C109.824 114.7 107.894 114.608 105.942 114.608H88.7304C84.712 106.498 76.0678 100.751 62.6553 95.4233L43.8132 87.235C21.2464 77.9401 5.03341 66.2109 5.2525 43.1951C5.69069 17.3023 28.2574 0.704345 53.8915 0.925648C65.9308 1.09938 73.7847 4.54609 80.3148 7.41184C82.1033 8.19673 83.7925 8.93805 85.4412 9.5566C90.4804 11.327 95.9577 10.2205 96.1768 2.4748L99.4632 2.2535L100.86 38.52L97.3545 39.1839C90.7816 15.0616 79.7447 5.57309 54.5488 4.90917C37.4594 4.24526 26.9429 15.9745 26.9429 30.5806C26.9429 46.5147 36.583 54.9243 56.5207 63.1126L76.0201 71.7436C98.806 81.481 111.733 94.0955 111.733 114.234C111.733 114.451 111.731 114.667 111.729 114.882Z" fill="white" style="mix-blend-mode:difference"/>
<path d="M37.9985 273.077V270.286C46.4994 270.286 52.8751 266.207 52.8751 251.395V144.491C52.8751 129.679 46.4994 125.601 37.9985 125.601V122.81H104.093C139.584 122.81 151.485 145.35 151.485 164.67C151.485 184.205 138.521 206.101 102.605 206.101L98.1422 206.745C110.468 206.745 124.92 208.247 133.633 224.347L150.21 253.327C157.648 266.207 164.237 270.286 173.8 270.286V273.077H134.483L106.218 223.489C100.905 214.258 93.4667 208.033 82.6281 207.389H76.89V251.395C76.89 266.207 83.2657 270.286 91.7665 270.286V273.077H37.9985ZM76.89 203.954L96.8671 203.739C118.757 203.31 127.258 184.205 127.045 164.885C126.833 145.779 118.757 126.459 95.8045 126.459H76.89V203.954Z" fill="white" style="mix-blend-mode:difference"/>
</svg>
