<svg width="974" height="370" viewBox="0 0 974 370" fill="none" xmlns="http://www.w3.org/2000/svg">
<path d="M278.766 294.88C278.766 310.24 275.353 322.869 268.526 332.768C262.041 342.325 252.995 349.835 241.39 355.296C230.126 360.757 216.814 364.341 201.454 366.048C186.094 368.096 169.71 369.12 152.302 369.12C143.427 369.12 132.505 368.949 119.534 368.608C106.905 368.267 93.7633 367.584 80.11 366.56C66.4567 365.536 53.3153 364.341 40.686 362.976C28.0567 361.269 17.3047 359.392 8.43 357.344L9.966 256.992H17.646C31.6407 278.155 45.1233 295.563 58.094 309.216C71.406 322.528 83.8647 332.939 95.47 340.448C107.075 347.957 117.827 353.077 127.726 355.808C137.625 358.539 146.158 359.904 153.326 359.904C167.321 359.904 178.243 356.661 186.094 350.176C193.945 343.349 197.87 336.523 197.87 329.696C197.87 323.211 192.921 316.896 183.022 310.752C173.465 304.608 161.347 298.293 146.67 291.808C131.993 285.323 116.121 278.325 99.054 270.816C82.3287 262.965 66.6273 254.432 51.95 245.216C37.2727 236 24.9847 225.76 15.086 214.496C5.52867 203.232 0.75 190.432 0.75 176.096C0.75 161.76 3.99267 149.984 10.478 140.768C17.3047 131.211 26.6913 123.701 38.638 118.24C50.5847 112.437 64.75 108.512 81.134 106.464C97.518 104.075 115.438 102.88 134.894 102.88C162.883 102.88 187.63 105.099 209.134 109.536C230.979 113.632 249.07 118.752 263.406 124.896L261.87 216.544H254.19C241.219 195.381 228.249 177.973 215.278 164.32C202.649 150.325 190.702 139.403 179.438 131.552C168.174 123.701 157.934 118.24 148.718 115.168C139.843 112.096 132.505 110.56 126.702 110.56C113.731 110.56 103.491 113.12 95.982 118.24C88.814 123.36 85.23 129.845 85.23 137.696C85.23 146.912 90.0087 155.104 99.566 162.272C109.123 169.44 121.07 176.437 135.406 183.264C149.742 189.749 165.273 196.405 181.998 203.232C198.723 210.059 214.254 217.739 228.59 226.272C242.926 234.805 254.873 244.704 264.43 255.968C273.987 266.891 278.766 279.861 278.766 294.88ZM422.622 351.2L457.95 356.32V364H281.822V356.32L317.15 351.2V120.8L281.822 115.68V108L422.622 104.416V132.576C437.982 121.653 451.123 113.973 462.046 109.536C472.969 105.099 483.721 102.88 494.302 102.88C504.201 102.88 514.441 104.075 525.022 106.464C535.603 108.853 548.574 113.803 563.934 121.312V234.976H556.254C543.283 213.813 529.971 197.088 516.318 184.8C503.006 172.512 490.377 163.296 478.43 157.152C466.483 150.667 455.561 146.571 445.662 144.864C436.105 143.157 428.425 142.304 422.622 142.304V351.2ZM586.538 13.28V5.59998L725.29 0.47998V351.2L750.378 356.32V364H584.49V356.32L619.818 351.2V18.4L586.538 13.28ZM867.626 119.776L816.426 116.192V108.512H920.874V116.192L885.034 119.776L812.33 177.12L937.258 352.736L973.098 356.32V364H801.066V356.32L825.13 351.2L730.922 226.272L867.626 119.776Z" fill="#355070"/>
<path d="M268.526 332.768L266.056 331.065L266.05 331.074L266.044 331.083L268.526 332.768ZM241.39 355.296L240.113 352.582L240.097 352.589L240.081 352.597L241.39 355.296ZM201.454 366.048L201.123 363.066L201.09 363.07L201.058 363.074L201.454 366.048ZM119.534 368.608L119.453 371.607L119.455 371.607L119.534 368.608ZM80.11 366.56L79.8856 369.552L80.11 366.56ZM40.686 362.976L40.2842 365.949L40.3238 365.954L40.3636 365.959L40.686 362.976ZM8.43 357.344L5.43035 357.298L5.39325 359.722L7.75542 360.267L8.43 357.344ZM9.966 256.992V253.992H7.01157L6.96635 256.946L9.966 256.992ZM17.646 256.992L20.1483 255.337L19.2588 253.992H17.646V256.992ZM58.094 309.216L55.919 311.282L55.9455 311.31L55.9727 311.337L58.094 309.216ZM95.47 340.448L93.8402 342.967L93.8402 342.967L95.47 340.448ZM127.726 355.808L128.524 352.916L128.524 352.916L127.726 355.808ZM186.094 350.176L188.005 352.489L188.034 352.465L188.063 352.44L186.094 350.176ZM183.022 310.752L181.4 313.276L181.42 313.288L181.44 313.301L183.022 310.752ZM146.67 291.808L145.458 294.552L145.458 294.552L146.67 291.808ZM99.054 270.816L97.7793 273.532L97.8123 273.547L97.8458 273.562L99.054 270.816ZM51.95 245.216L50.3547 247.757L50.3547 247.757L51.95 245.216ZM15.086 214.496L12.7985 216.437L12.8153 216.457L12.8325 216.476L15.086 214.496ZM10.478 140.768L8.0368 139.024L8.03066 139.033L8.02458 139.042L10.478 140.768ZM38.638 118.24L39.8853 120.968L39.9172 120.954L39.9487 120.939L38.638 118.24ZM81.134 106.464L81.5061 109.441L81.5366 109.437L81.5669 109.433L81.134 106.464ZM209.134 109.536L208.528 112.474L208.554 112.48L208.581 112.485L209.134 109.536ZM263.406 124.896L266.406 124.946L266.439 122.932L264.588 122.139L263.406 124.896ZM261.87 216.544V219.544H264.82L264.87 216.594L261.87 216.544ZM254.19 216.544L251.632 218.112L252.51 219.544H254.19V216.544ZM215.278 164.32L213.051 166.33L213.077 166.358L213.103 166.386L215.278 164.32ZM179.438 131.552L177.723 134.013L177.723 134.013L179.438 131.552ZM148.718 115.168L147.737 118.003L147.753 118.009L147.769 118.014L148.718 115.168ZM95.982 118.24L94.292 115.761L94.2649 115.78L94.2383 115.799L95.982 118.24ZM99.566 162.272L97.766 164.672L97.766 164.672L99.566 162.272ZM135.406 183.264L134.116 185.973L134.143 185.985L134.17 185.997L135.406 183.264ZM181.998 203.232L180.864 206.01L180.864 206.01L181.998 203.232ZM228.59 226.272L230.124 223.694L230.124 223.694L228.59 226.272ZM264.43 255.968L262.142 257.909L262.157 257.926L262.172 257.944L264.43 255.968ZM275.766 294.88C275.766 309.8 272.453 321.79 266.056 331.065L270.996 334.471C278.252 323.949 281.766 310.68 281.766 294.88H275.766ZM266.044 331.083C259.893 340.148 251.286 347.323 240.113 352.582L242.667 358.01C254.704 352.346 264.189 344.503 271.008 334.453L266.044 331.083ZM240.081 352.597C229.187 357.879 216.22 361.389 201.123 363.066L201.785 369.03C217.408 367.294 231.065 363.636 242.699 357.995L240.081 352.597ZM201.058 363.074C185.844 365.103 169.593 366.12 152.302 366.12V372.12C169.827 372.12 186.344 371.089 201.851 369.022L201.058 363.074ZM152.302 366.12C143.463 366.12 132.568 365.95 119.613 365.609L119.455 371.607C132.441 371.949 143.392 372.12 152.302 372.12V366.12ZM119.615 365.609C107.037 365.269 93.9439 364.589 80.3344 363.568L79.8856 369.552C93.5828 370.579 106.772 371.264 119.453 371.607L119.615 365.609ZM80.3344 363.568C66.7113 362.547 53.6027 361.355 41.0084 359.993L40.3636 365.959C53.0279 367.328 66.2021 368.525 79.8856 369.552L80.3344 363.568ZM41.0878 360.003C28.517 358.304 17.8616 356.442 9.10458 354.421L7.75542 360.267C16.7478 362.342 27.5963 364.234 40.2842 365.949L41.0878 360.003ZM11.4296 357.39L12.9656 257.038L6.96635 256.946L5.43035 357.298L11.4296 357.39ZM9.966 259.992H17.646V253.992H9.966V259.992ZM15.1437 258.647C29.2042 279.909 42.7941 297.467 55.919 311.282L60.269 307.15C47.4526 293.659 34.0771 276.4 20.1483 255.337L15.1437 258.647ZM55.9727 311.337C69.3844 324.749 82.0069 335.31 93.8402 342.967L97.0998 337.929C85.7224 330.567 73.4276 320.307 60.2153 307.095L55.9727 311.337ZM93.8402 342.967C105.62 350.589 116.653 355.865 126.928 358.7L128.524 352.916C119.002 350.289 108.531 345.326 97.0998 337.929L93.8402 342.967ZM126.928 358.7C136.985 361.474 145.8 362.904 153.326 362.904V356.904C146.516 356.904 138.265 355.603 128.524 352.916L126.928 358.7ZM153.326 362.904C167.758 362.904 179.445 359.56 188.005 352.489L184.183 347.863C177.041 353.763 166.883 356.904 153.326 356.904V362.904ZM188.063 352.44C196.224 345.343 200.87 337.762 200.87 329.696H194.87C194.87 335.283 191.666 341.356 184.125 347.912L188.063 352.44ZM200.87 329.696C200.87 321.558 194.69 314.463 184.604 308.203L181.44 313.301C191.152 319.329 194.87 324.863 194.87 329.696H200.87ZM184.644 308.228C174.915 301.974 162.649 295.589 147.883 289.064L145.458 294.552C160.046 300.998 172.014 307.242 181.4 313.276L184.644 308.228ZM147.883 289.064C133.204 282.578 117.33 275.58 100.262 268.07L97.8458 273.562C114.911 281.071 130.782 288.067 145.458 294.552L147.883 289.064ZM100.329 268.1C83.7065 260.298 68.1129 251.822 53.5453 242.675L50.3547 247.757C65.1418 257.042 80.9508 265.633 97.7793 273.532L100.329 268.1ZM53.5453 242.675C39.076 233.59 27.0199 223.531 17.3395 212.516L12.8325 216.476C22.9494 227.989 35.4694 238.41 50.3547 247.757L53.5453 242.675ZM17.3735 212.555C8.26089 201.815 3.75 189.698 3.75 176.096H-2.25C-2.25 191.166 2.79644 204.649 12.7985 216.437L17.3735 212.555ZM3.75 176.096C3.75 162.21 6.88779 151.083 12.9314 142.494L8.02458 139.042C1.09755 148.885 -2.25 161.31 -2.25 176.096H3.75ZM12.9192 142.512C19.406 133.43 28.3581 126.238 39.8853 120.968L37.3907 115.512C25.0246 121.165 15.2034 128.991 8.0368 139.024L12.9192 142.512ZM39.9487 120.939C51.538 115.309 65.3721 111.458 81.5061 109.441L80.7619 103.487C64.1279 105.566 49.6313 109.565 37.3273 115.541L39.9487 120.939ZM81.5669 109.433C97.7853 107.067 115.559 105.88 134.894 105.88V99.88C115.317 99.88 97.2507 101.082 80.7011 103.495L81.5669 109.433ZM134.894 105.88C162.732 105.88 187.269 108.087 208.528 112.474L209.74 106.598C187.991 102.11 163.034 99.88 134.894 99.88V105.88ZM208.581 112.485C230.294 116.556 248.155 121.624 262.224 127.653L264.588 122.139C249.985 115.88 231.665 110.708 209.687 106.587L208.581 112.485ZM260.406 124.846L258.87 216.494L264.87 216.594L266.406 124.946L260.406 124.846ZM261.87 213.544H254.19V219.544H261.87V213.544ZM256.748 214.976C243.7 193.687 230.606 176.099 217.453 162.254L213.103 166.386C225.892 179.848 238.739 197.075 251.632 218.112L256.748 214.976ZM217.505 162.31C204.775 148.204 192.659 137.11 181.153 129.091L177.723 134.013C188.745 141.695 200.522 152.447 213.051 166.33L217.505 162.31ZM181.153 129.091C169.743 121.138 159.242 115.514 149.667 112.322L147.769 118.014C156.626 120.966 166.605 126.265 177.723 134.013L181.153 129.091ZM149.699 112.333C140.679 109.211 132.981 107.56 126.702 107.56V113.56C132.029 113.56 139.008 114.981 147.737 118.003L149.699 112.333ZM126.702 107.56C113.375 107.56 102.47 110.185 94.292 115.761L97.672 120.719C104.512 116.055 114.087 113.56 126.702 113.56V107.56ZM94.2383 115.799C86.3933 121.402 82.23 128.747 82.23 137.696H88.23C88.23 130.943 91.2347 125.318 97.7257 120.681L94.2383 115.799ZM82.23 137.696C82.23 148.126 87.6984 157.121 97.766 164.672L101.366 159.872C92.3189 153.087 88.23 145.698 88.23 137.696H82.23ZM97.766 164.672C107.525 171.991 119.655 179.086 134.116 185.973L136.696 180.555C122.485 173.788 110.722 166.889 101.366 159.872L97.766 164.672ZM134.17 185.997C148.544 192.5 164.109 199.171 180.864 206.01L183.132 200.454C166.436 193.64 150.94 186.999 136.643 180.531L134.17 185.997ZM180.864 206.01C197.463 212.784 212.858 220.399 227.056 228.85L230.124 223.694C215.65 215.078 199.984 207.333 183.132 200.454L180.864 206.01ZM227.056 228.85C241.143 237.236 252.825 246.928 262.142 257.909L266.718 254.027C256.92 242.48 244.709 232.375 230.124 223.694L227.056 228.85ZM262.172 257.944C271.233 268.299 275.766 280.56 275.766 294.88H281.766C281.766 279.162 276.742 265.483 266.688 253.992L262.172 257.944ZM422.622 351.2H419.622V353.797L422.192 354.169L422.622 351.2ZM457.95 356.32H460.95V353.723L458.38 353.351L457.95 356.32ZM457.95 364V367H460.95V364H457.95ZM281.822 364H278.822V367H281.822V364ZM281.822 356.32L281.392 353.351L278.822 353.723V356.32H281.822ZM317.15 351.2L317.58 354.169L320.15 353.797V351.2H317.15ZM317.15 120.8H320.15V118.203L317.58 117.831L317.15 120.8ZM281.822 115.68H278.822V118.277L281.392 118.649L281.822 115.68ZM281.822 108L281.746 105.001L278.822 105.075V108H281.822ZM422.622 104.416H425.622V101.339L422.546 101.417L422.622 104.416ZM422.622 132.576H419.622V138.391L424.361 135.021L422.622 132.576ZM462.046 109.536L463.175 112.315L463.175 112.315L462.046 109.536ZM525.022 106.464L524.361 109.39L524.361 109.39L525.022 106.464ZM563.934 121.312H566.934V119.439L565.252 118.617L563.934 121.312ZM563.934 234.976V237.976H566.934V234.976H563.934ZM556.254 234.976L553.696 236.544L554.574 237.976H556.254V234.976ZM516.318 184.8L514.283 187.004L514.297 187.017L514.311 187.03L516.318 184.8ZM478.43 157.152L476.999 159.789L477.028 159.805L477.058 159.82L478.43 157.152ZM445.662 144.864L445.135 147.817L445.143 147.819L445.152 147.82L445.662 144.864ZM422.622 142.304V139.304H419.622V142.304H422.622ZM422.192 354.169L457.52 359.289L458.38 353.351L423.052 348.231L422.192 354.169ZM454.95 356.32V364H460.95V356.32H454.95ZM457.95 361H281.822V367H457.95V361ZM284.822 364V356.32H278.822V364H284.822ZM282.252 359.289L317.58 354.169L316.72 348.231L281.392 353.351L282.252 359.289ZM320.15 351.2V120.8H314.15V351.2H320.15ZM317.58 117.831L282.252 112.711L281.392 118.649L316.72 123.769L317.58 117.831ZM284.822 115.68V108H278.822V115.68H284.822ZM281.898 110.999L422.698 107.415L422.546 101.417L281.746 105.001L281.898 110.999ZM419.622 104.416V132.576H425.622V104.416H419.622ZM424.361 135.021C439.629 124.163 452.557 116.629 463.175 112.315L460.917 106.757C449.69 111.317 436.335 119.144 420.883 130.131L424.361 135.021ZM463.175 112.315C473.78 108.007 484.15 105.88 494.302 105.88V99.88C483.292 99.88 472.157 102.19 460.917 106.757L463.175 112.315ZM494.302 105.88C503.958 105.88 513.976 107.045 524.361 109.39L525.683 103.538C514.905 101.104 504.443 99.88 494.302 99.88V105.88ZM524.361 109.39C534.624 111.708 547.361 116.549 562.616 124.007L565.252 118.617C549.787 111.057 536.582 105.999 525.683 103.538L524.361 109.39ZM560.934 121.312V234.976H566.934V121.312H560.934ZM563.934 231.976H556.254V237.976H563.934V231.976ZM558.812 233.408C545.74 212.08 532.253 195.105 518.325 182.57L514.311 187.03C527.69 199.071 540.827 215.547 553.696 236.544L558.812 233.408ZM518.353 182.596C504.906 170.183 492.057 160.786 479.802 154.484L477.058 159.82C488.697 165.805 501.106 174.841 514.283 187.004L518.353 182.596ZM479.861 154.515C467.722 147.925 456.484 143.686 446.172 141.908L445.152 147.82C454.637 149.456 465.245 153.408 476.999 159.789L479.861 154.515ZM446.189 141.911C436.557 140.191 428.68 139.304 422.622 139.304V145.304C428.17 145.304 435.652 146.124 445.135 147.817L446.189 141.911ZM419.622 142.304V351.2H425.622V142.304H419.622ZM586.538 13.28H583.538V15.8537L586.082 16.2451L586.538 13.28ZM586.538 5.59998L586.427 2.60202L583.538 2.70863V5.59998H586.538ZM725.29 0.47998H728.29V-2.63276L725.179 -2.51798L725.29 0.47998ZM725.29 351.2H722.29V353.65L724.69 354.139L725.29 351.2ZM750.378 356.32H753.378V353.87L750.978 353.381L750.378 356.32ZM750.378 364V367H753.378V364H750.378ZM584.49 364H581.49V367H584.49V364ZM584.49 356.32L584.06 353.351L581.49 353.723V356.32H584.49ZM619.818 351.2L620.248 354.169L622.818 353.797V351.2H619.818ZM619.818 18.4H622.818V15.8262L620.274 15.4349L619.818 18.4ZM867.626 119.776L869.47 122.143L875.647 117.33L867.835 116.783L867.626 119.776ZM816.426 116.192H813.426V118.989L816.217 119.185L816.426 116.192ZM816.426 108.512V105.512H813.426V108.512H816.426ZM920.874 108.512H923.874V105.512H920.874V108.512ZM920.874 116.192L921.173 119.177L923.874 118.907V116.192H920.874ZM885.034 119.776L884.736 116.791L883.864 116.878L883.176 117.42L885.034 119.776ZM812.33 177.12L810.472 174.764L808.231 176.533L809.885 178.859L812.33 177.12ZM937.258 352.736L934.813 354.475L935.603 355.586L936.96 355.721L937.258 352.736ZM973.098 356.32H976.098V353.605L973.397 353.335L973.098 356.32ZM973.098 364V367H976.098V364H973.098ZM801.066 364H798.066V367H801.066V364ZM801.066 356.32L800.442 353.386L798.066 353.891V356.32H801.066ZM825.13 351.2L825.754 354.134L830.361 353.154L827.525 349.394L825.13 351.2ZM730.922 226.272L729.078 223.905L726.749 225.72L728.527 228.078L730.922 226.272ZM589.538 13.28V5.59998H583.538V13.28H589.538ZM586.649 8.59794L725.401 3.47794L725.179 -2.51798L586.427 2.60202L586.649 8.59794ZM722.29 0.47998V351.2H728.29V0.47998H722.29ZM724.69 354.139L749.778 359.259L750.978 353.381L725.89 348.261L724.69 354.139ZM747.378 356.32V364H753.378V356.32H747.378ZM750.378 361H584.49V367H750.378V361ZM587.49 364V356.32H581.49V364H587.49ZM584.92 359.289L620.248 354.169L619.388 348.231L584.06 353.351L584.92 359.289ZM622.818 351.2V18.4H616.818V351.2H622.818ZM620.274 15.4349L586.994 10.3149L586.082 16.2451L619.362 21.3651L620.274 15.4349ZM867.835 116.783L816.635 113.199L816.217 119.185L867.417 122.769L867.835 116.783ZM819.426 116.192V108.512H813.426V116.192H819.426ZM816.426 111.512H920.874V105.512H816.426V111.512ZM917.874 108.512V116.192H923.874V108.512H917.874ZM920.576 113.207L884.736 116.791L885.333 122.761L921.173 119.177L920.576 113.207ZM883.176 117.42L810.472 174.764L814.188 179.475L886.892 122.131L883.176 117.42ZM809.885 178.859L934.813 354.475L939.703 350.997L814.775 175.381L809.885 178.859ZM936.96 355.721L972.8 359.305L973.397 353.335L937.557 349.751L936.96 355.721ZM970.098 356.32V364H976.098V356.32H970.098ZM973.098 361H801.066V367H973.098V361ZM804.066 364V356.32H798.066V364H804.066ZM801.69 359.254L825.754 354.134L824.506 348.266L800.442 353.386L801.69 359.254ZM827.525 349.394L733.317 224.466L728.527 228.078L822.735 353.006L827.525 349.394ZM732.766 228.639L869.47 122.143L865.782 117.409L729.078 223.905L732.766 228.639Z" fill="#E56B6F"/>
</svg>
