<svg width="243" height="242" viewBox="0 0 243 242" fill="none" xmlns="http://www.w3.org/2000/svg">
<path d="M126.936 213V229.364H120.246C118.484 229.364 117.085 228.966 116.048 228.17C115.011 227.375 114.493 226.324 114.493 225.017C114.493 224.023 114.788 223.252 115.377 222.705C115.967 222.165 116.723 221.8 117.646 221.608C117.043 221.523 116.457 221.31 115.888 220.969C115.313 220.628 114.837 220.159 114.461 219.562C114.084 218.973 113.896 218.249 113.896 217.389C113.896 216.551 114.109 215.802 114.535 215.141C114.962 214.481 115.572 213.959 116.368 213.575C117.163 213.192 118.115 213 119.223 213H126.936ZM124.55 215.301H119.223C118.356 215.301 117.678 215.507 117.188 215.919C116.698 216.331 116.453 216.892 116.453 217.602C116.453 218.447 116.698 219.112 117.188 219.594C117.678 220.085 118.356 220.33 119.223 220.33H124.55V215.301ZM124.55 222.503H120.246C119.571 222.503 118.992 222.595 118.509 222.78C118.026 222.972 117.657 223.241 117.401 223.589C117.138 223.945 117.007 224.364 117.007 224.847C117.007 225.536 117.295 226.075 117.87 226.466C118.445 226.864 119.237 227.062 120.246 227.062H124.55V222.503Z" fill="black"/>
<path d="M104.048 211.019C105.598 211.309 106.871 211.901 107.867 212.795C108.855 213.695 109.537 214.82 109.913 216.169C110.281 217.524 110.311 219.025 110.003 220.673C109.695 222.32 109.124 223.716 108.288 224.861C107.445 226.011 106.416 226.837 105.202 227.34C103.98 227.849 102.643 227.967 101.191 227.696C100.353 227.539 99.5516 227.245 98.787 226.813C98.0224 226.381 97.3637 225.788 96.8109 225.035C96.2569 224.288 95.8768 223.364 95.6707 222.264C95.4646 221.163 95.5018 219.862 95.7824 218.361L95.9782 217.314L108.377 219.632L107.978 221.768L98.0921 219.92C97.9225 220.828 97.9526 221.671 98.1825 222.451C98.4054 223.23 98.81 223.887 99.3962 224.423C99.9755 224.958 100.712 225.309 101.606 225.476C102.59 225.66 103.487 225.574 104.298 225.22C105.1 224.872 105.765 224.346 106.294 223.643C106.823 222.939 107.17 222.145 107.336 221.258L107.602 219.834C107.829 218.619 107.812 217.55 107.551 216.627C107.282 215.71 106.812 214.961 106.14 214.38C105.467 213.806 104.631 213.426 103.633 213.239C102.984 213.118 102.38 213.099 101.823 213.183C101.257 213.272 100.747 213.466 100.294 213.764C99.8397 214.069 99.4556 214.481 99.1417 215.001L96.8794 213.884C97.2821 213.121 97.8376 212.488 98.5459 211.985C99.2528 211.488 100.075 211.151 101.011 210.972C101.947 210.8 102.959 210.816 104.048 211.019Z" fill="black"/>
<path d="M74.7318 225.746L74.0939 223.853C74.7319 223.583 75.3902 223.476 76.0688 223.533C76.7473 223.59 77.4784 223.748 78.2621 224.006C79.0457 224.264 79.9154 224.555 80.8712 224.879C81.9462 225.25 82.9238 225.332 83.8039 225.124C84.684 224.917 85.4873 224.436 86.2137 223.682C86.9401 222.927 87.6103 221.915 88.2243 220.645L88.0256 220.568C87.1396 221.321 86.1524 221.746 85.064 221.842C83.9756 221.939 82.9082 221.784 81.8618 221.379C80.6697 220.917 79.7046 220.223 78.9665 219.297C78.2283 218.372 77.7927 217.255 77.6598 215.946C77.5268 214.638 77.7707 213.183 78.3916 211.58C79.0099 209.984 79.8284 208.717 80.8469 207.778C81.8588 206.838 82.9966 206.25 84.2602 206.016C85.5147 205.786 86.824 205.935 88.1883 206.464C89.5526 206.992 90.6235 207.777 91.4012 208.817C92.1762 209.863 92.6023 211.133 92.6792 212.625C92.7536 214.124 92.4265 215.814 91.6978 217.695L91.0667 219.324C89.7505 222.721 88.1763 225.074 86.3441 226.383C84.5052 227.689 82.4119 227.921 80.0643 227.08C79.2328 226.789 78.4984 226.512 77.8612 226.25C77.2239 225.988 76.6527 225.801 76.1477 225.689C75.6426 225.577 75.1707 225.596 74.7318 225.746ZM87.3724 208.57C86.4519 208.213 85.5707 208.138 84.7288 208.345C83.8803 208.55 83.1143 209.003 82.4309 209.706C81.7448 210.415 81.1799 211.342 80.7361 212.488C80.305 213.601 80.1203 214.618 80.1818 215.541C80.2366 216.461 80.519 217.256 81.0288 217.926C81.5386 218.595 82.2604 219.111 83.1942 219.473C83.8764 219.737 84.5339 219.859 85.1667 219.837C85.7996 219.816 86.3953 219.654 86.9539 219.353C87.5125 219.051 88.0234 218.617 88.4868 218.05C88.9435 217.481 89.3401 216.781 89.6767 215.952C90.3386 214.243 90.4677 212.72 90.0641 211.383C89.6604 210.046 88.7632 209.109 87.3724 208.57Z" fill="black"/>
<path d="M68.6307 191.121L63.8938 196.317L62.886 195.398C62.4049 195.43 61.9387 195.515 61.4875 195.651C61.0363 195.788 60.5585 196.001 60.0541 196.291C59.5396 196.581 58.9648 196.98 58.3297 197.487C57.6897 197.999 56.9479 198.644 56.104 199.422L51.3309 203.836L43.6469 196.831L53.092 186.47L51.234 184.776L55.971 179.58L57.829 181.274L54.671 184.738L63.6147 192.891L66.7727 189.427L68.6307 191.121ZM60.7761 193.475L54.9501 188.164L47.0839 196.792L51.1778 200.524L54.2775 197.757C55.5618 196.612 56.7317 195.655 57.7872 194.887C58.8427 194.12 59.8389 193.649 60.7761 193.475Z" fill="black"/>
<path d="M47.4299 181.976L32.5791 183.312L30.8329 181L43.8913 171.138L45.4065 173.145L35.3066 180.772L50.1317 179.402L51.9036 181.748L38.8452 191.61L37.33 189.603L47.4299 181.976Z" fill="black"/>
<path d="M37.7321 168.912L36.5354 166.509C37.1713 166.129 37.5247 165.58 37.5958 164.863C37.6637 164.138 37.4776 163.335 37.0376 162.451C36.5881 161.548 36.019 160.867 35.3306 160.409C34.6357 159.954 33.8719 159.933 33.039 160.348C32.5495 160.592 32.1836 160.925 31.9415 161.347C31.6931 161.772 31.5764 162.254 31.5914 162.794C31.6064 163.334 31.7626 163.903 32.0602 164.501L33.3139 167.019L31.2921 168.025L30.0385 165.508C29.5921 164.611 29.0594 164.051 28.4404 163.828C27.8183 163.598 27.202 163.635 26.5917 163.939C25.9368 164.265 25.5279 164.758 25.3648 165.419C25.1954 166.082 25.3227 166.84 25.747 167.692C26.1743 168.55 26.7244 169.169 27.3971 169.548C28.0635 169.93 28.7066 169.987 29.3264 169.718L30.5041 172.083C29.7031 172.45 28.8866 172.555 28.0547 172.398C27.2164 172.244 26.4293 171.859 25.6935 171.241C24.9512 170.627 24.3269 169.811 23.8203 168.794C23.3075 167.764 23.0439 166.781 23.0296 165.844C23.0057 164.904 23.1992 164.073 23.6101 163.353C24.0115 162.629 24.6001 162.075 25.3757 161.688C26.2022 161.277 26.9853 161.177 27.725 161.387C28.4647 161.598 29.1168 161.999 29.6812 162.591L29.8338 162.515C29.5965 161.943 29.5355 161.374 29.6508 160.809C29.7565 160.241 30.0067 159.716 30.4014 159.234C30.7897 158.755 31.289 158.363 31.8993 158.059C32.7894 157.616 33.6838 157.468 34.5824 157.616C35.4747 157.767 36.3093 158.168 37.0865 158.821C37.8572 159.476 38.5085 160.338 39.0403 161.406C39.5564 162.442 39.8501 163.454 39.9215 164.442C39.9866 165.433 39.8374 166.321 39.474 167.105C39.1011 167.886 38.5205 168.488 37.7321 168.912Z" fill="black"/>
<path d="M33.4239 146.876C33.7076 147.873 33.7773 148.832 33.6329 149.752C33.4816 150.673 33.1154 151.475 32.5342 152.158C31.9461 152.842 31.1398 153.33 30.1151 153.621C29.2134 153.878 28.4319 153.908 27.7707 153.712C27.1026 153.518 26.5235 153.17 26.0334 152.667C25.5432 152.164 25.1175 151.576 24.7563 150.904C24.3864 150.226 24.0496 149.536 23.746 148.832C23.3509 147.911 23.0381 147.161 22.8075 146.585C22.5682 146.003 22.3311 145.598 22.0962 145.369C21.8594 145.134 21.5463 145.072 21.1569 145.182L21.075 145.206C20.0639 145.493 19.3571 145.994 18.9544 146.706C18.5497 147.412 18.5058 148.322 18.8226 149.435C19.1511 150.59 19.6613 151.423 20.3534 151.935C21.0455 152.447 21.7164 152.754 22.366 152.858L22.1993 155.386C21.1263 155.248 20.2263 154.914 19.4991 154.382C18.7631 153.846 18.1736 153.201 17.7305 152.449C17.2787 151.691 16.94 150.916 16.7146 150.124C16.5708 149.618 16.467 149.02 16.4034 148.329C16.331 147.634 16.3918 146.926 16.5857 146.206C16.7777 145.48 17.1877 144.805 17.8157 144.184C18.4437 143.562 19.3827 143.073 20.6328 142.718L31.0025 139.767L31.6906 142.185L29.5592 142.792L29.5942 142.915C29.9824 142.981 30.4256 143.151 30.9239 143.422C31.4221 143.694 31.8982 144.109 32.3522 144.666C32.8062 145.224 33.1634 145.96 33.4239 146.876ZM31.1466 147.125C30.8745 146.169 30.4573 145.416 29.895 144.867C29.3307 144.311 28.7038 143.951 28.0143 143.785C27.3228 143.613 26.6492 143.62 25.9934 143.806L23.7801 144.436C23.9322 144.504 24.1091 144.697 24.3106 145.016C24.5035 145.33 24.7016 145.702 24.905 146.132C25.0997 146.556 25.2846 146.973 25.4597 147.381C25.6261 147.784 25.7633 148.11 25.8713 148.36C26.1321 148.965 26.4324 149.515 26.7724 150.009C27.1035 150.498 27.4978 150.858 27.955 151.09C28.4036 151.317 28.9352 151.343 29.55 151.168C30.3903 150.929 30.9371 150.437 31.1906 149.693C31.4353 148.944 31.4207 148.088 31.1466 147.125Z" fill="black"/>
<path d="M26.3966 133.948L13.067 127.266L12.7996 124.38L29.0935 122.871L29.3254 125.374L16.7232 126.542L30.0489 133.182L30.3202 136.109L14.0264 137.619L13.7944 135.116L26.3966 133.948ZM7.78905 129.424L7.5728 127.09C8.71846 126.984 9.6922 127.293 10.494 128.018C11.2958 128.742 11.7596 129.784 11.8854 131.141C12.0093 132.478 11.7437 133.576 11.0887 134.436C10.433 135.288 9.53236 135.767 8.3867 135.874L8.17045 133.54C8.72206 133.489 9.1924 133.292 9.58147 132.949C9.96988 132.599 10.1297 132.053 10.0609 131.31C9.99207 130.568 9.7343 130.057 9.28756 129.777C8.84017 129.491 8.34067 129.373 7.78905 129.424Z" fill="black"/>
<path d="M20.8314 107.147L23.1652 107.363L22.3316 116.359L19.9978 116.143L20.8314 107.147ZM13.0516 114.9L29.3455 116.41L29.1135 118.913L12.8197 117.403L13.0516 114.9ZM14.0071 104.589L30.3009 106.099L30.0689 108.602L13.7751 107.092L14.0071 104.589Z" fill="black"/>
<path d="M33.2723 95.5013C32.8408 97.0178 32.1339 98.2308 31.1515 99.1401C30.1642 100.041 28.9815 100.616 27.6033 100.866C26.2202 101.108 24.7226 100.999 23.1104 100.541C21.4983 100.082 20.161 99.3839 19.0985 98.4466C18.0312 97.5004 17.3031 96.3998 16.9145 95.1447C16.5209 93.8808 16.5262 92.5384 16.9305 91.1175C17.1637 90.2978 17.5307 89.5272 18.0313 88.8057C18.532 88.0842 19.183 87.483 19.9844 87.0021C20.779 86.5193 21.7337 86.2261 22.8487 86.1224C23.9637 86.0187 25.2555 86.1759 26.7242 86.5937L27.7489 86.8853L24.297 99.0174L22.2066 98.4226L24.9588 88.7497C24.0708 88.4971 23.2278 88.4492 22.43 88.6062C21.6341 88.7563 20.9423 89.0985 20.3546 89.6328C19.7689 90.1603 19.3516 90.8612 19.1028 91.7356C18.8288 92.6988 18.8307 93.6002 19.1087 94.4399C19.3818 95.2707 19.844 95.9819 20.4954 96.5734C21.1468 97.1648 21.9062 97.584 22.7738 97.8308L24.1673 98.2273C25.356 98.5655 26.4219 98.6473 27.365 98.4726C28.3033 98.2891 29.0926 97.8897 29.7329 97.2744C30.3663 96.6571 30.822 95.8601 31.1 94.8832C31.2807 94.2479 31.3552 93.6489 31.3234 93.086C31.2866 92.5143 31.1407 91.9892 30.8855 91.5104C30.6236 91.0298 30.2485 90.6092 29.7603 90.2488L31.0808 88.0991C31.8032 88.5705 32.3824 89.182 32.8184 89.9337C33.2475 90.6835 33.5079 91.5329 33.5997 92.482C33.6846 93.4292 33.5755 94.4357 33.2723 95.5013Z" fill="black"/>
<path d="M41.6265 88.4022L21.4854 78.3731L22.568 76.1987L24.895 77.3574L25.0279 77.0904C24.8559 76.7984 24.6456 76.4081 24.3971 75.9194C24.1454 75.4211 24.0014 74.8179 23.9653 74.1096C23.926 73.3919 24.1438 72.5562 24.6187 71.6025C25.2328 70.3691 26.0825 69.4355 27.1677 68.8016C28.253 68.1678 29.4928 67.8687 30.8872 67.9046C32.2817 67.9404 33.7481 68.3413 35.2867 69.1074C36.838 69.8799 38.0513 70.8133 38.9265 71.9076C39.7954 72.9988 40.3087 74.1669 40.4664 75.4117C40.6178 76.6533 40.3895 77.8845 39.7817 79.1052C39.3132 80.0461 38.7823 80.7219 38.189 81.1327C37.5893 81.5402 37.0133 81.7968 36.4608 81.9026C35.9019 82.0051 35.4478 82.0726 35.0985 82.1049L35.0035 82.2956L42.7472 86.1515L41.6265 88.4022ZM29.9111 79.8075C31.0173 80.3584 32.074 80.6822 33.081 80.779C34.0817 80.8726 34.9755 80.7266 35.7626 80.341C36.5433 79.9522 37.1584 79.3064 37.608 78.4036C38.0765 77.4627 38.2195 76.5541 38.037 75.6777C37.8514 74.7919 37.4149 73.9795 36.7276 73.2405C36.0371 72.4921 35.1705 71.8583 34.1279 71.3391C33.0979 70.8262 32.0906 70.523 31.1058 70.4293C30.1178 70.3261 29.2239 70.4721 28.4242 70.8673C27.6212 71.2529 26.9823 71.9226 26.5075 72.8762C26.0516 73.7917 25.9006 74.6766 26.0545 75.5307C26.202 76.3817 26.6098 77.1719 27.278 77.9014C27.9399 78.6276 28.8176 79.263 29.9111 79.8075Z" fill="black"/>
<path d="M53.7809 53.057L51.0804 38.3929L53.2219 36.4407L64.246 48.5335L62.388 50.2273L53.8615 40.8743L56.5935 55.5097L54.4205 57.4906L43.3964 45.3978L45.2544 43.7039L53.7809 53.057Z" fill="black"/>
<path d="M84.3853 43.2246L76.2574 22.244L78.5223 21.3665L79.4614 23.7904L79.7395 23.6827C79.8091 23.3511 79.9167 22.921 80.0622 22.3923C80.2119 21.8545 80.5119 21.3118 80.9624 20.764C81.4169 20.2071 82.1408 19.7362 83.1342 19.3514C84.419 18.8537 85.6759 18.7361 86.905 18.9988C88.134 19.2615 89.2517 19.8758 90.258 20.8417C91.2644 21.8076 92.078 23.0919 92.6989 24.6945C93.3249 26.3105 93.5927 27.8176 93.5023 29.2161C93.4093 30.6078 93.0017 31.8168 92.2796 32.843C91.555 33.8625 90.5569 34.6186 89.2853 35.1112C88.3052 35.4909 87.4575 35.6327 86.7424 35.5365C86.0247 35.4337 85.4261 35.2353 84.9465 34.9412C84.4645 34.6405 84.0834 34.3844 83.8035 34.173L83.6048 34.25L86.7298 42.3164L84.3853 43.2246ZM81.5177 28.9805C81.9641 30.1328 82.5268 31.084 83.2058 31.8339C83.8822 32.5773 84.6412 33.0716 85.4826 33.3169C86.3215 33.5555 87.2111 33.4927 88.1516 33.1284C89.1317 32.7486 89.8496 32.1735 90.3051 31.4029C90.7647 30.6232 90.9894 29.7287 90.9793 28.7197C90.9733 27.7014 90.7599 26.6492 90.3391 25.563C89.9235 24.4902 89.3833 23.5874 88.7186 22.8547C88.058 22.1129 87.2991 21.6186 86.4419 21.3718C85.5887 21.1159 84.6654 21.1803 83.672 21.5652C82.7183 21.9346 82.0106 22.4868 81.5489 23.2217C81.0846 23.9499 80.8536 24.8087 80.856 25.7979C80.8558 26.7805 81.0764 27.8414 81.5177 28.9805Z" fill="black"/>
<path d="M103.658 31.097C102.639 31.2875 101.678 31.2685 100.776 31.0398C99.8717 30.8042 99.1069 30.3655 98.4812 29.7238C97.8542 29.0751 97.4428 28.2272 97.247 27.18C97.0748 26.2584 97.1167 25.4775 97.3727 24.8372C97.6274 24.1899 98.0278 23.6454 98.5738 23.2037C99.1198 22.7621 99.7444 22.3924 100.447 22.0948C101.156 21.7889 101.875 21.5173 102.604 21.2799C103.557 20.9716 104.332 20.7292 104.928 20.5528C105.529 20.3682 105.954 20.1694 106.204 19.9567C106.46 19.7426 106.551 19.4366 106.476 19.0387L106.461 18.9549C106.268 17.9216 105.835 17.1716 105.162 16.7049C104.497 16.2368 103.595 16.1091 102.457 16.3219C101.277 16.5424 100.4 16.9736 99.8268 17.6155C99.2532 18.2574 98.8851 18.8971 98.7224 19.5344L96.2201 19.1351C96.4562 18.0794 96.8725 17.2141 97.4688 16.539C98.0709 15.8557 98.767 15.3281 99.5574 14.9564C100.353 14.5764 101.156 14.3107 101.966 14.1593C102.483 14.0628 103.088 14.0147 103.782 14.015C104.481 14.0071 105.18 14.133 105.879 14.3925C106.585 14.6507 107.218 15.1212 107.779 15.8038C108.34 16.4865 108.74 17.4666 108.979 18.7442L110.96 29.3419L108.489 29.8039L108.082 27.6257L107.956 27.6492C107.854 28.0296 107.644 28.4553 107.328 28.9263C107.011 29.3973 106.554 29.8331 105.957 30.2338C105.36 30.6344 104.594 30.9221 103.658 31.097ZM103.62 28.8065C104.598 28.6238 105.386 28.2778 105.984 27.7685C106.589 27.258 107.006 26.667 107.235 25.9957C107.471 25.3231 107.526 24.6517 107.4 23.9814L106.978 21.7195C106.896 21.8647 106.687 22.023 106.351 22.1943C106.02 22.3573 105.632 22.5202 105.185 22.6831C104.744 22.8378 104.313 22.9835 103.89 23.1202C103.474 23.2487 103.136 23.3552 102.877 23.4397C102.251 23.6435 101.676 23.8919 101.152 24.1848C100.635 24.4694 100.24 24.8287 99.9666 25.2627C99.6994 25.6883 99.6245 26.2153 99.7419 26.8437C99.9025 27.7024 100.341 28.2923 101.059 28.6133C101.782 28.9261 102.636 28.9905 103.62 28.8065Z" fill="black"/>
<path d="M115.681 24.8239H118.365C118.422 25.5625 118.756 26.1236 119.367 26.5071C119.985 26.8906 120.787 27.0824 121.774 27.0824C122.783 27.0824 123.646 26.8764 124.363 26.4645C125.08 26.0455 125.439 25.3707 125.439 24.4403C125.439 23.8935 125.304 23.4176 125.034 23.0128C124.764 22.6009 124.384 22.2812 123.894 22.054C123.404 21.8267 122.825 21.7131 122.158 21.7131L119.345 21.7131V19.4545L122.158 19.4545C123.159 19.4545 123.898 19.2273 124.374 18.7727C124.857 18.3182 125.098 17.75 125.098 17.0682C125.098 16.3366 124.839 15.7507 124.32 15.3104C123.802 14.8629 123.067 14.6392 122.115 14.6392C121.156 14.6392 120.357 14.8558 119.718 15.2891C119.079 15.7152 118.742 16.2656 118.706 16.9403H116.064C116.093 16.0597 116.362 15.282 116.874 14.6072C117.385 13.9254 118.081 13.3928 118.962 13.0092C119.843 12.6186 120.851 12.4233 121.987 12.4233C123.138 12.4233 124.136 12.6257 124.981 13.0305C125.833 13.4283 126.49 13.9716 126.952 14.6605C127.421 15.3423 127.655 16.1165 127.655 16.983C127.655 17.9063 127.396 18.652 126.877 19.2202C126.359 19.7884 125.709 20.1932 124.928 20.4347V20.6051C125.546 20.6477 126.082 20.8466 126.536 21.2017C126.998 21.5497 127.357 22.0078 127.612 22.576C127.868 23.1371 127.996 23.7585 127.996 24.4403C127.996 25.4347 127.73 26.3011 127.197 27.0398C126.664 27.7713 125.933 28.3395 125.002 28.7443C124.072 29.142 123.01 29.3409 121.817 29.3409C120.659 29.3409 119.622 29.1527 118.706 28.7763C117.79 28.3928 117.062 27.8636 116.522 27.1889C115.99 26.5071 115.709 25.7188 115.681 24.8239Z" fill="black"/>
<path d="M130.86 35.4335L134.994 13.3166L137.382 13.7629L136.904 16.3181L137.198 16.3729C137.431 16.1276 137.749 15.8185 138.151 15.4457C138.562 15.0672 139.102 14.7637 139.774 14.5351C140.453 14.3009 141.317 14.2817 142.364 14.4774C143.718 14.7306 144.849 15.2924 145.756 16.1627C146.662 17.033 147.289 18.1437 147.636 19.4947C147.983 20.8457 147.999 22.3659 147.683 24.0554C147.365 25.7589 146.799 27.1813 145.986 28.3226C145.174 29.457 144.191 30.2703 143.037 30.7626C141.884 31.248 140.638 31.3654 139.297 31.1148C138.264 30.9217 137.469 30.596 136.911 30.1377C136.355 29.6725 135.951 29.1887 135.698 28.6862C135.446 28.1768 135.257 27.7585 135.13 27.4313L134.921 27.3922L133.331 35.8954L130.86 35.4335ZM135.921 21.8132C135.693 23.028 135.671 24.1329 135.854 25.128C136.037 26.1161 136.422 26.9359 137.009 27.5874C137.596 28.2319 138.386 28.6468 139.377 28.8321C140.41 29.0252 141.324 28.9141 142.116 28.4988C142.918 28.0778 143.58 27.4356 144.102 26.5724C144.633 25.7034 145.006 24.6965 145.22 23.5515C145.431 22.4206 145.447 21.3687 145.268 20.3958C145.097 19.4173 144.712 18.5975 144.113 17.9365C143.522 17.2697 142.703 16.8384 141.656 16.6427C140.65 16.4547 139.758 16.5517 138.979 16.9334C138.201 17.3082 137.552 17.9167 137.033 18.759C136.516 19.5944 136.145 20.6124 135.921 21.8132Z" fill="black"/>
<path d="M153.631 35.2683C152.664 34.8937 151.857 34.3717 151.21 33.7021C150.565 33.0259 150.146 32.2503 149.952 31.3754C149.76 30.4938 149.857 29.5563 150.242 28.5629C150.58 27.6887 151.027 27.0468 151.582 26.6371C152.139 26.2208 152.766 25.9687 153.463 25.8806C154.16 25.7926 154.885 25.8071 155.64 25.9242C156.403 26.0372 157.157 26.1846 157.902 26.3664C158.875 26.6064 159.662 26.8082 160.261 26.9718C160.869 27.1313 161.335 27.1862 161.659 27.1365C161.99 27.0894 162.228 26.8771 162.375 26.4996L162.405 26.4201C162.785 25.44 162.812 24.5745 162.486 23.8236C162.166 23.0753 161.467 22.492 160.387 22.0738C159.268 21.6402 158.296 21.5453 157.47 21.7891C156.645 22.0329 155.995 22.3829 155.521 22.8391L153.604 21.1824C154.36 20.4091 155.17 19.8925 156.032 19.6325C156.904 19.3684 157.773 19.2864 158.641 19.3864C159.518 19.4824 160.34 19.6792 161.108 19.9768C161.599 20.1666 162.138 20.4443 162.728 20.8098C163.327 21.1713 163.855 21.6463 164.312 22.2348C164.777 22.8259 165.067 23.5593 165.185 24.4352C165.303 25.311 165.127 26.3548 164.657 27.5668L160.763 37.62L158.418 36.7118L159.219 34.6455L159.1 34.5993C158.812 34.8689 158.41 35.1206 157.893 35.3544C157.376 35.5882 156.758 35.7183 156.04 35.7446C155.321 35.7709 154.518 35.6121 153.631 35.2683ZM154.804 33.3009C155.731 33.66 156.583 33.7807 157.36 33.6627C158.144 33.5473 158.809 33.2644 159.357 32.814C159.911 32.3661 160.312 31.8242 160.558 31.1885L161.389 29.0427C161.244 29.1234 160.983 29.148 160.607 29.1165C160.24 29.081 159.823 29.015 159.358 28.9185C158.902 28.8179 158.458 28.7146 158.027 28.6085C157.605 28.4984 157.262 28.4111 156.998 28.3467C156.358 28.1902 155.738 28.0987 155.139 28.0722C154.549 28.0417 154.024 28.1391 153.563 28.3644C153.112 28.5856 152.771 28.9943 152.54 29.5903C152.224 30.4049 152.287 31.1376 152.728 31.7883C153.178 32.4349 153.87 32.9391 154.804 33.3009Z" fill="black"/>
<path d="M186.351 26.5973L186.63 28.5746C185.953 28.7235 185.286 28.7075 184.63 28.5265C183.973 28.3456 183.284 28.0564 182.561 27.6589C181.838 27.2614 181.036 26.8154 180.156 26.3207C179.168 25.7587 178.222 25.4988 177.319 25.541C176.416 25.5832 175.538 25.9083 174.685 26.5164C173.832 27.1245 172.987 27.9965 172.15 29.1323L172.332 29.2445C173.341 28.6666 174.39 28.4303 175.477 28.5356C176.565 28.641 177.585 28.989 178.54 29.5798C179.626 30.2528 180.448 31.1121 181.003 32.1577C181.559 33.2033 181.781 34.3813 181.672 35.6918C181.562 37.0022 181.055 38.388 180.15 39.8493C179.249 41.3046 178.212 42.3998 177.038 43.135C175.87 43.874 174.644 44.2424 173.359 44.2402C172.084 44.2358 170.824 43.8485 169.58 43.0783C168.336 42.3081 167.428 41.3403 166.854 40.1751C166.285 39.0038 166.099 37.6777 166.298 36.1968C166.5 34.7098 167.132 33.1088 168.194 31.3939L169.114 29.9084C171.032 26.8107 173.012 24.787 175.053 23.8374C177.101 22.8915 179.201 23.0475 181.354 24.3055C182.118 24.745 182.789 25.1521 183.367 25.5269C183.945 25.9016 184.472 26.1904 184.948 26.3931C185.424 26.5959 185.892 26.664 186.351 26.5973ZM170.769 41.158C171.608 41.6777 172.461 41.9132 173.326 41.8644C174.198 41.8193 175.034 41.5143 175.835 40.9493C176.64 40.3783 177.366 39.5704 178.012 38.5258C178.641 37.5113 179.009 36.545 179.118 35.6268C179.233 34.7124 179.102 33.8792 178.724 33.1271C178.346 32.3751 177.731 31.7355 176.88 31.2084C176.258 30.8233 175.634 30.5831 175.008 30.4878C174.382 30.3926 173.766 30.4419 173.162 30.6356C172.557 30.8294 171.975 31.1623 171.416 31.6345C170.862 32.1103 170.344 32.7249 169.861 33.4783C168.896 35.0362 168.489 36.5094 168.64 37.8978C168.791 39.2861 169.501 40.3729 170.769 41.158Z" fill="black"/>
<path d="M183.064 53.2622C181.972 52.267 181.251 51.134 180.901 49.8631C180.555 48.5971 180.578 47.2864 180.968 45.9311C181.363 44.5806 182.13 43.2807 183.268 42.0315C184.417 40.7719 185.647 39.8804 186.961 39.3572C188.279 38.8387 189.584 38.6929 190.877 38.9197C192.174 39.1513 193.369 39.7647 194.461 40.76C195.553 41.7552 196.271 42.8858 196.616 44.1519C196.967 45.4227 196.942 46.736 196.542 48.0918C196.147 49.4523 195.376 50.7625 194.228 52.0221C193.089 53.2713 191.863 54.1525 190.549 54.6657C189.241 55.1837 187.938 55.3269 186.64 55.0953C185.347 54.8685 184.155 54.2575 183.064 53.2622ZM184.585 51.5932C185.414 52.3491 186.291 52.7586 187.213 52.8215C188.136 52.8844 189.042 52.6867 189.931 52.2283C190.82 51.7699 191.633 51.1366 192.369 50.3283C193.106 49.52 193.664 48.6496 194.044 47.7171C194.423 46.7846 194.541 45.8591 194.398 44.9407C194.255 44.0222 193.769 43.185 192.939 42.429C192.11 41.673 191.232 41.2662 190.304 41.2085C189.376 41.1509 188.466 41.3539 187.572 41.8175C186.678 42.2811 185.863 42.917 185.126 43.7253C184.39 44.5336 183.834 45.4014 183.459 46.3287C183.085 47.256 182.972 48.1762 183.12 49.0894C183.267 50.0026 183.756 50.8372 184.585 51.5932Z" fill="black"/>
<path d="M202.214 52.2017L204.085 50.7893L212.097 61.3993L210.227 62.8117L206.991 58.5269L195.803 66.9758L194.288 64.9694L205.476 56.5205L202.214 52.2017Z" fill="black"/>
<path d="M221.126 78.339L206.478 85.6329L205.357 83.3823L220.006 76.0884L221.126 78.339ZM213.709 80.9377L211.611 81.9824C211.167 81.5687 210.746 81.1472 210.35 80.7177C209.96 80.2851 209.586 79.8128 209.228 79.3009C208.876 78.7857 208.536 78.1976 208.207 77.5364C207.38 75.877 207.165 74.3219 207.562 72.871C207.961 71.4265 209.057 70.2578 210.85 69.3651L215.542 67.0288L216.663 69.2794L211.971 71.6157C211.22 71.9893 210.675 72.4394 210.334 72.9661C209.994 73.4928 209.827 74.0595 209.836 74.6662C209.845 75.2728 210.001 75.8813 210.305 76.4917C210.78 77.4453 211.294 78.2641 211.849 78.9479C212.413 79.6349 213.033 80.2981 213.709 80.9377Z" fill="black"/>
<path d="M212.237 90.8314L226.567 94.9504L227.36 97.7376L211.621 102.216L210.933 99.7975L223.106 96.3339L208.787 92.2559L207.983 89.4278L223.722 84.9496L224.41 87.3679L212.237 90.8314Z" fill="black"/>
<path d="M212.437 107.278L228.731 105.768L228.963 108.272L221.877 108.928L222.03 110.583L229.659 115.782L229.957 119.007L221.498 113.158L213.671 120.602L213.373 117.377L219.751 111.394L219.543 109.145L212.669 109.782L212.437 107.278Z" fill="black"/>
<path d="M209.182 147.113C209.601 145.637 210.311 144.466 211.311 143.598C212.311 142.731 213.504 142.184 214.89 141.958C216.276 141.733 217.755 141.843 219.326 142.29C220.925 142.745 222.252 143.44 223.307 144.375C224.368 145.32 225.092 146.419 225.481 147.674C225.875 148.938 225.869 150.281 225.465 151.702C225.15 152.808 224.661 153.747 223.999 154.519C223.336 155.29 222.555 155.854 221.656 156.211C220.757 156.568 219.797 156.675 218.774 156.532L219.462 154.114C220.232 154.134 220.984 153.904 221.718 153.427C222.457 152.957 222.978 152.19 223.281 151.124C223.549 150.182 223.538 149.285 223.249 148.435C222.964 147.593 222.434 146.848 221.659 146.199C220.888 145.559 219.909 145.07 218.72 144.732C217.504 144.386 216.391 144.276 215.38 144.402C214.368 144.535 213.512 144.882 212.813 145.444C212.112 146.012 211.626 146.775 211.354 147.731C211.175 148.359 211.122 148.961 211.195 149.535C211.268 150.11 211.458 150.633 211.767 151.105C212.076 151.577 212.496 151.969 213.027 152.283L212.339 154.701C211.449 154.3 210.708 153.724 210.117 152.973C209.531 152.23 209.145 151.356 208.958 150.35C208.777 149.353 208.851 148.274 209.182 147.113Z" fill="black"/>
<path d="M203.698 161.089C204.161 160.161 204.755 159.405 205.481 158.823C206.214 158.244 207.025 157.898 207.914 157.785C208.81 157.676 209.734 157.858 210.688 158.333C211.527 158.751 212.125 159.255 212.482 159.845C212.845 160.439 213.038 161.086 213.062 161.788C213.085 162.49 213.004 163.211 212.817 163.952C212.634 164.701 212.418 165.439 212.168 166.163C211.84 167.11 211.566 167.875 211.348 168.456C211.133 169.047 211.035 169.507 211.055 169.834C211.071 170.167 211.261 170.424 211.623 170.605L211.699 170.643C212.64 171.111 213.5 171.218 214.277 170.962C215.052 170.713 215.697 170.071 216.213 169.034C216.748 167.96 216.932 167 216.766 166.156C216.599 165.311 216.311 164.632 215.9 164.118L217.727 162.362C218.427 163.186 218.867 164.04 219.046 164.923C219.229 165.815 219.23 166.688 219.05 167.543C218.874 168.407 218.602 169.208 218.235 169.946C218.001 170.416 217.674 170.928 217.256 171.481C216.841 172.044 216.319 172.526 215.691 172.928C215.059 173.335 214.302 173.557 213.419 173.594C212.536 173.63 211.513 173.359 210.35 172.779L200.699 167.974L201.819 165.723L203.803 166.711L203.86 166.596C203.618 166.285 203.405 165.862 203.219 165.325C203.034 164.789 202.962 164.162 203.002 163.444C203.042 162.726 203.274 161.941 203.698 161.089ZM205.549 162.439C205.106 163.329 204.907 164.166 204.953 164.951C204.996 165.742 205.216 166.43 205.614 167.017C206.009 167.611 206.511 168.059 207.122 168.363L209.182 169.389C209.115 169.237 209.114 168.975 209.18 168.603C209.25 168.241 209.354 167.832 209.493 167.378C209.635 166.933 209.779 166.501 209.924 166.081C210.073 165.671 210.191 165.338 210.28 165.08C210.495 164.457 210.643 163.849 210.725 163.255C210.81 162.67 210.761 162.138 210.579 161.659C210.401 161.189 210.025 160.812 209.453 160.527C208.671 160.137 207.936 160.132 207.247 160.511C206.562 160.9 205.996 161.543 205.549 162.439Z" fill="black"/>
<path d="M200.182 175.377L205.531 189.295L203.785 191.608L190.726 181.746L192.242 179.74L202.342 187.367L196.967 173.483L198.739 171.136L211.797 180.998L210.282 183.004L200.182 175.377ZM210.886 191.256L209.473 193.126C208.555 192.433 208.044 191.549 207.939 190.473C207.835 189.397 208.194 188.315 209.015 187.227C209.824 186.156 210.76 185.523 211.823 185.329C212.882 185.141 213.871 185.394 214.789 186.087L213.377 187.957C212.934 187.624 212.454 187.452 211.936 187.443C211.413 187.44 210.927 187.736 210.478 188.331C210.028 188.926 209.874 189.478 210.016 189.985C210.154 190.499 210.443 190.922 210.886 191.256Z" fill="black"/>
<path d="M197.284 195.207L198.863 196.939L189.037 205.896L187.458 204.164L191.426 200.547L181.981 190.186L183.839 188.492L193.284 198.853L197.284 195.207Z" fill="black"/>
<path d="M169.568 198.929C170.824 198.152 172.111 197.768 173.429 197.779C174.741 197.794 175.996 198.174 177.193 198.92C178.383 199.669 179.424 200.763 180.314 202.2C181.211 203.649 181.732 205.077 181.875 206.483C182.013 207.893 181.796 209.188 181.224 210.369C180.647 211.554 179.73 212.535 178.474 213.313C177.218 214.091 175.934 214.472 174.621 214.458C173.303 214.447 172.047 214.064 170.852 213.308C169.652 212.556 168.603 211.456 167.705 210.007C166.815 208.569 166.303 207.149 166.169 205.745C166.029 204.345 166.248 203.052 166.826 201.868C167.398 200.686 168.312 199.707 169.568 198.929ZM170.757 200.85C169.803 201.44 169.169 202.171 168.856 203.041C168.543 203.912 168.485 204.837 168.683 205.818C168.88 206.798 169.267 207.753 169.843 208.683C170.419 209.613 171.103 210.388 171.896 211.008C172.689 211.628 173.547 211.994 174.47 212.108C175.392 212.222 176.331 211.984 177.285 211.393C178.239 210.802 178.87 210.068 179.18 209.192C179.489 208.315 179.543 207.384 179.342 206.398C179.14 205.411 178.752 204.453 178.176 203.523C177.6 202.593 176.918 201.821 176.128 201.208C175.339 200.594 174.485 200.233 173.566 200.125C172.647 200.017 171.711 200.259 170.757 200.85Z" fill="black"/>
<path d="M159.791 204.757L165.702 220.015L159.463 222.432C157.821 223.068 156.372 223.203 155.118 222.836C153.864 222.469 153.001 221.676 152.529 220.457C152.17 219.53 152.166 218.705 152.518 217.982C152.873 217.266 153.446 216.652 154.238 216.139C153.644 216.278 153.021 216.291 152.368 216.178C151.708 216.068 151.095 215.803 150.529 215.383C149.965 214.969 149.527 214.361 149.217 213.56C148.914 212.778 148.842 212.003 149.001 211.233C149.16 210.463 149.541 209.756 150.144 209.111C150.747 208.466 151.565 207.943 152.598 207.543L159.791 204.757ZM158.397 207.764L153.43 209.689C152.622 210.002 152.064 210.439 151.755 211C151.447 211.561 151.421 212.173 151.678 212.835C151.983 213.623 152.452 214.154 153.083 214.427C153.717 214.707 154.438 214.691 155.246 214.378L160.213 212.453L158.397 207.764ZM160.998 214.48L156.985 216.035C156.356 216.278 155.849 216.574 155.466 216.92C155.085 217.273 154.838 217.659 154.725 218.075C154.608 218.501 154.637 218.94 154.812 219.39C155.06 220.032 155.524 220.432 156.201 220.588C156.881 220.751 157.692 220.651 158.632 220.286L162.645 218.732L160.998 214.48Z" fill="black"/>
<mask id="path-30-outside-1_1343_271" maskUnits="userSpaceOnUse" x="75" y="71" width="97" height="100" fill="black">
<rect fill="white" x="75" y="71" width="97" height="100"/>
<path d="M169.071 141.448C169.071 146.653 167.876 150.963 165.487 154.376C163.098 157.789 159.898 160.52 155.887 162.568C151.876 164.531 147.268 165.896 142.063 166.664C136.858 167.517 131.482 167.944 125.935 167.944C121.583 167.944 117.231 167.731 112.879 167.304C108.612 166.963 104.474 166.493 100.463 165.896C96.5377 165.299 92.8683 164.659 89.455 163.976C86.0417 163.293 83.0977 162.653 80.623 162.056L81.903 126.216H83.823C84.847 130.568 86.5963 135.091 89.071 139.784C91.5457 144.392 94.5323 148.616 98.031 152.456C101.615 156.296 105.626 159.453 110.063 161.928C114.5 164.403 119.194 165.64 124.143 165.64C128.922 165.64 132.463 164.488 134.767 162.184C137.071 159.795 138.223 156.808 138.223 153.224C138.223 150.408 136.73 147.72 133.743 145.16C130.756 142.6 127.044 140.04 122.607 137.48C118.17 134.92 113.306 132.317 108.015 129.672C102.81 127.027 97.9883 124.211 93.551 121.224C89.1137 118.152 85.4017 114.867 82.415 111.368C79.4283 107.869 77.935 103.987 77.935 99.72C77.935 94.6 79.1297 90.376 81.519 87.048C83.9083 83.72 87.023 81.0747 90.863 79.112C94.703 77.064 99.0977 75.656 104.047 74.888C108.996 74.12 114.031 73.736 119.151 73.736C127.94 73.736 136.047 74.2053 143.471 75.144C150.98 75.9973 157.423 76.9787 162.799 78.088L161.519 113.928H159.599C158.575 109.576 156.826 105.181 154.351 100.744C151.962 96.2213 149.103 92.168 145.775 88.584C142.447 84.9147 138.778 81.928 134.767 79.624C130.756 77.2347 126.66 76.04 122.479 76.04C118.383 76.04 114.842 77.064 111.855 79.112C108.868 81.16 107.375 84.1467 107.375 88.072C107.375 90.7173 108.868 93.2773 111.855 95.752C114.927 98.1413 118.767 100.573 123.375 103.048C127.983 105.437 132.932 107.955 138.223 110.6C143.514 113.16 148.463 115.976 153.071 119.048C157.679 122.035 161.476 125.405 164.463 129.16C167.535 132.829 169.071 136.925 169.071 141.448Z"/>
</mask>
<path d="M165.487 154.376L163.439 152.942L163.439 152.942L165.487 154.376ZM155.887 162.568L156.986 164.814L157.005 164.804L157.024 164.795L155.887 162.568ZM142.063 166.664L141.698 164.191L141.678 164.194L141.659 164.197L142.063 166.664ZM112.879 167.304L113.123 164.816L113.101 164.814L113.078 164.812L112.879 167.304ZM100.463 165.896L100.087 168.368L100.095 168.369L100.463 165.896ZM89.455 163.976L89.9453 161.525L89.9453 161.525L89.455 163.976ZM80.623 162.056L78.1246 161.967L78.0517 164.007L80.0364 164.486L80.623 162.056ZM81.903 126.216V123.716H79.4907L79.4046 126.127L81.903 126.216ZM83.823 126.216L86.2565 125.643L85.803 123.716H83.823V126.216ZM89.071 139.784L86.8596 140.95L86.864 140.958L86.8685 140.967L89.071 139.784ZM98.031 152.456L96.183 154.14L96.1931 154.151L96.2034 154.162L98.031 152.456ZM110.063 161.928L111.281 159.745L111.281 159.745L110.063 161.928ZM134.767 162.184L136.535 163.952L136.551 163.936L136.567 163.919L134.767 162.184ZM108.015 129.672L106.882 131.901L106.89 131.904L106.897 131.908L108.015 129.672ZM93.551 121.224L92.128 123.279L92.1415 123.289L92.1551 123.298L93.551 121.224ZM82.415 111.368L84.3164 109.745L84.3164 109.745L82.415 111.368ZM81.519 87.048L79.4882 85.59L79.4882 85.59L81.519 87.048ZM90.863 79.112L92.0008 81.3381L92.0202 81.3282L92.0395 81.3179L90.863 79.112ZM143.471 75.144L143.157 77.6243L143.173 77.6262L143.189 77.628L143.471 75.144ZM162.799 78.088L165.297 78.1772L165.373 76.0664L163.304 75.6396L162.799 78.088ZM161.519 113.928V116.428H163.931L164.017 114.017L161.519 113.928ZM159.599 113.928L157.165 114.501L157.619 116.428H159.599V113.928ZM154.351 100.744L152.141 101.912L152.154 101.937L152.168 101.962L154.351 100.744ZM145.775 88.584L143.923 90.2635L143.933 90.2744L143.943 90.2851L145.775 88.584ZM134.767 79.624L133.487 81.7717L133.505 81.7819L133.522 81.7918L134.767 79.624ZM111.855 79.112L113.269 81.1738L113.269 81.1738L111.855 79.112ZM111.855 95.752L110.26 97.6771L110.29 97.7017L110.32 97.7254L111.855 95.752ZM123.375 103.048L122.192 105.25L122.208 105.259L122.224 105.267L123.375 103.048ZM138.223 110.6L137.105 112.836L137.119 112.843L137.134 112.85L138.223 110.6ZM153.071 119.048L151.684 121.128L151.698 121.137L151.711 121.146L153.071 119.048ZM164.463 129.16L162.507 130.716L162.526 130.741L162.546 130.765L164.463 129.16ZM166.571 141.448C166.571 146.269 165.468 150.044 163.439 152.942L167.535 155.81C170.285 151.882 171.571 147.037 171.571 141.448H166.571ZM163.439 152.942C161.303 155.994 158.427 158.464 154.75 160.341L157.024 164.795C161.368 162.576 164.893 159.584 167.535 155.81L163.439 152.942ZM154.788 160.322C151.046 162.154 146.693 163.454 141.698 164.191L142.428 169.137C147.844 168.338 152.707 166.908 156.986 164.814L154.788 160.322ZM141.659 164.197C136.594 165.027 131.353 165.444 125.935 165.444V170.444C131.61 170.444 137.122 170.007 142.467 169.131L141.659 164.197ZM125.935 165.444C121.665 165.444 117.394 165.235 113.123 164.816L112.635 169.792C117.068 170.227 121.501 170.444 125.935 170.444V165.444ZM113.078 164.812C108.865 164.475 104.783 164.012 100.831 163.423L100.095 168.369C104.164 168.975 108.36 169.45 112.68 169.796L113.078 164.812ZM100.839 163.424C96.9468 162.832 93.3159 162.199 89.9453 161.525L88.9647 166.427C92.4208 167.119 96.1285 167.765 100.087 168.368L100.839 163.424ZM89.9453 161.525C86.5534 160.846 83.6432 160.213 81.2096 159.626L80.0364 164.486C82.5522 165.093 85.5299 165.74 88.9647 166.427L89.9453 161.525ZM83.1214 162.145L84.4014 126.305L79.4046 126.127L78.1246 161.967L83.1214 162.145ZM81.903 128.716H83.823V123.716H81.903V128.716ZM81.3895 126.789C82.4701 131.381 84.3038 136.103 86.8596 140.95L91.2824 138.618C88.8888 134.078 87.2239 129.755 86.2565 125.643L81.3895 126.789ZM86.8685 140.967C89.4397 145.754 92.5451 150.147 96.183 154.14L99.879 150.772C96.5196 147.085 93.6517 143.03 91.2735 138.601L86.8685 140.967ZM96.2034 154.162C99.9586 158.185 104.173 161.506 108.845 164.111L111.281 159.745C107.078 157.401 103.271 154.407 99.8586 150.75L96.2034 154.162ZM108.845 164.111C113.645 166.788 118.756 168.14 124.143 168.14V163.14C119.632 163.14 115.356 162.017 111.281 159.745L108.845 164.111ZM124.143 168.14C129.276 168.14 133.581 166.905 136.535 163.952L132.999 160.416C131.345 162.071 128.567 163.14 124.143 163.14V168.14ZM136.567 163.919C139.358 161.025 140.723 157.399 140.723 153.224H135.723C135.723 156.217 134.784 158.565 132.967 160.449L136.567 163.919ZM140.723 153.224C140.723 149.423 138.682 146.1 135.37 143.262L132.116 147.058C134.778 149.34 135.723 151.393 135.723 153.224H140.723ZM135.37 143.262C132.237 140.576 128.39 137.93 123.856 135.315L121.358 139.645C125.699 142.15 129.276 144.624 132.116 147.058L135.37 143.262ZM123.856 135.315C119.37 132.726 114.462 130.1 109.133 127.436L106.897 131.908C112.15 134.534 116.969 137.114 121.358 139.645L123.856 135.315ZM109.148 127.443C104.025 124.84 99.2925 122.075 94.9469 119.15L92.1551 123.298C96.6842 126.346 101.594 129.213 106.882 131.901L109.148 127.443ZM94.974 119.169C90.6844 116.199 87.1412 113.054 84.3164 109.745L80.5136 112.991C83.6621 116.679 87.543 120.105 92.128 123.279L94.974 119.169ZM84.3164 109.745C81.6835 106.661 80.435 103.343 80.435 99.72H75.435C75.435 104.63 77.1732 109.078 80.5136 112.991L84.3164 109.745ZM80.435 99.72C80.435 94.9912 81.5344 91.3132 83.5498 88.506L79.4882 85.59C76.7249 89.4388 75.435 94.2088 75.435 99.72H80.435ZM83.5498 88.506C85.6946 85.5186 88.4962 83.1293 92.0008 81.3381L89.7252 76.8859C85.5498 79.02 82.1221 81.9214 79.4882 85.59L83.5498 88.506ZM92.0395 81.3179C95.5976 79.4202 99.7172 78.0898 104.43 77.3584L103.664 72.4176C98.4781 73.2222 93.8084 74.7078 89.6865 76.9061L92.0395 81.3179ZM104.43 77.3584C109.25 76.6105 114.156 76.236 119.151 76.236V71.236C113.906 71.236 108.743 71.6294 103.664 72.4176L104.43 77.3584ZM119.151 76.236C127.853 76.236 135.853 76.7008 143.157 77.6243L143.785 72.6637C136.241 71.7099 128.028 71.236 119.151 71.236V76.236ZM143.189 77.628C150.649 78.4758 157.013 79.4467 162.294 80.5364L163.304 75.6396C157.833 74.5106 151.312 73.5189 143.753 72.66L143.189 77.628ZM160.301 77.9988L159.021 113.839L164.017 114.017L165.297 78.1772L160.301 77.9988ZM161.519 111.428H159.599V116.428H161.519V111.428ZM162.033 113.355C160.949 108.75 159.107 104.139 156.534 99.5263L152.168 101.962C154.544 106.224 156.201 110.402 157.165 114.501L162.033 113.355ZM156.561 99.5762C154.075 94.8688 151.091 90.6345 147.607 86.8829L143.943 90.2851C147.115 93.7015 149.849 97.5738 152.141 101.912L156.561 99.5762ZM147.627 86.9045C144.136 83.0554 140.265 79.8992 136.012 77.4562L133.522 81.7918C137.29 83.9568 140.758 86.7739 143.923 90.2635L147.627 86.9045ZM136.047 77.4762C131.695 74.8839 127.162 73.54 122.479 73.54V78.54C126.159 78.54 129.818 79.5854 133.487 81.7717L136.047 77.4762ZM122.479 73.54C117.947 73.54 113.897 74.6803 110.441 77.0502L113.269 81.1738C115.786 79.4477 118.819 78.54 122.479 78.54V73.54ZM110.441 77.0502C106.71 79.6086 104.875 83.4039 104.875 88.072H109.875C109.875 84.8895 111.027 82.7114 113.269 81.1738L110.441 77.0502ZM104.875 88.072C104.875 91.757 106.975 94.9551 110.26 97.6771L113.45 93.8269C110.762 91.5996 109.875 89.6776 109.875 88.072H104.875ZM110.32 97.7254C113.533 100.224 117.5 102.73 122.192 105.25L124.558 100.846C120.034 98.4162 116.321 96.0583 113.39 93.7786L110.32 97.7254ZM122.224 105.267C126.844 107.663 131.805 110.186 137.105 112.836L139.341 108.364C134.06 105.723 129.122 103.212 124.526 100.829L122.224 105.267ZM137.134 112.85C142.328 115.364 147.177 118.123 151.684 121.128L154.458 116.968C149.749 113.829 144.699 110.956 139.312 108.35L137.134 112.85ZM151.711 121.146C156.125 124.006 159.711 127.201 162.507 130.716L166.42 127.604C163.242 123.609 159.233 120.063 154.431 116.95L151.711 121.146ZM162.546 130.765C165.265 134.013 166.571 137.548 166.571 141.448H171.571C171.571 136.303 169.805 131.646 166.38 127.555L162.546 130.765Z" fill="black" mask="url(#path-30-outside-1_1343_271)"/>
</svg>
