<svg width="1280" height="508" fill="none" xmlns="http://www.w3.org/2000/svg"><g opacity=".8"><path d="M377.034 315.792c0 20.821-4.779 38.059-14.336 51.712-9.557 13.653-22.357 24.576-38.4 32.768-16.043 7.851-34.475 13.312-55.296 16.384-20.821 3.413-42.325 5.12-64.512 5.12a534.82 534.82 0 0 1-52.224-2.56c-17.067-1.365-33.621-3.243-49.664-5.632-15.701-2.389-30.379-4.949-44.032-7.68-13.653-2.731-25.43-5.291-35.328-7.68l5.12-143.36h7.68c4.096 17.408 11.093 35.499 20.992 54.272 9.899 18.432 21.845 35.328 35.84 50.688 14.336 15.36 30.379 27.989 48.128 37.888 17.749 9.899 36.523 14.848 56.32 14.848 19.115 0 33.28-4.608 42.496-13.824 9.216-9.557 13.824-21.504 13.824-35.84 0-11.264-5.973-22.016-17.92-32.256-11.947-10.24-26.795-20.48-44.544-30.72-17.749-10.24-37.205-20.651-58.368-31.232-20.821-10.581-40.107-21.845-57.856-33.792-17.75-12.288-32.597-25.429-44.544-39.424-11.947-13.995-17.92-29.525-17.92-46.592 0-20.48 4.779-37.376 14.336-50.688 9.557-13.312 22.016-23.893 37.376-31.744 15.36-8.192 32.939-13.824 52.736-16.896 19.797-3.072 39.936-4.608 60.416-4.608 35.157 0 67.584 1.877 97.28 5.632 30.037 3.413 55.808 7.339 77.312 11.776l-5.12 143.36h-7.68c-4.096-17.408-11.093-34.987-20.992-52.736-9.557-18.091-20.992-34.304-34.304-48.64-13.312-14.677-27.989-26.624-44.032-35.84-16.043-9.557-32.427-14.336-49.152-14.336-16.384 0-30.549 4.096-42.496 12.288-11.947 8.192-17.92 20.139-17.92 35.84 0 10.581 5.973 20.821 17.92 30.72 12.288 9.557 27.648 19.285 46.08 29.184 18.432 9.557 38.229 19.627 59.392 30.208 21.163 10.24 40.96 21.504 59.392 33.792 18.432 11.947 33.621 25.429 45.568 40.448 12.288 14.677 18.432 31.061 18.432 49.152zM551.09 64.4v332.8l35.84 5.12V410H397.49v-7.68l35.84-5.12V64.4l-35.84-5.12V51.6h288.768c18.091 0 34.475 2.39 49.152 7.168 15.019 4.779 27.819 11.435 38.4 19.968 10.923 8.533 19.285 18.773 25.088 30.72 6.144 11.605 9.216 24.405 9.216 38.4 0 16.043-3.925 29.525-11.776 40.448-7.851 10.923-16.896 19.797-27.136 26.624-10.24 6.827-20.139 11.947-29.696 15.36-9.557 3.413-16.043 5.632-19.456 6.656l106.496 231.424-3.072 1.536c-13.653-4.437-28.672-11.093-45.056-19.968-16.043-8.875-32.597-19.456-49.664-31.744s-34.133-26.112-51.2-41.472a588.02 588.02 0 0 1-48.128-48.64c-14.677-17.408-27.989-35.499-39.936-54.272-11.947-19.115-21.333-38.229-28.16-57.344 14.336-1.024 29.184-3.072 44.544-6.144 15.36-3.413 29.184-8.192 41.472-14.336 12.629-6.144 22.869-13.995 30.72-23.552 8.192-9.557 12.288-21.163 12.288-34.816 0-7.168-1.365-14.848-4.096-23.04-2.731-8.533-7.168-16.555-13.312-24.064-6.144-7.51-14.165-13.653-24.064-18.432-9.557-5.12-21.333-7.68-35.328-7.68H551.09zm508.36 337.92 35.33-5.12-104.962-168.96L1133.69 67.472l-49.66-8.192V51.6h104.44v7.68l-35.32 8.192-74.76 83.456 153.6 246.272 35.33 5.12V410h-207.87v-7.68zm-79.36-5.12 35.84 5.12V410H826.49v-7.68l35.84-5.12V64.4l-35.84-5.12V51.6h189.44v7.68l-35.84 5.12v332.8z" fill="url(#a)" fill-opacity=".9"/><path d="m362.698 367.504-.819-.573.819.573zm-38.4 32.768.44.898.007-.004.008-.003-.455-.891zm-55.296 16.384-.146-.989-.008.001-.008.001.162.987zm-116.736 2.56.098-.995-.009-.001-.009-.001-.08.997zm-49.664-5.632-.15.989h.003l.147-.989zm-44.032-7.68.196-.981-.196.981zm-35.328-7.68-1-.036-.029.816.794.192.235-.972zm5.12-143.36v-1h-.965l-.034.964.999.036zm7.68 0 .973-.229-.181-.771h-.792v1zm20.992 54.272-.885.466.004.007.881-.473zm35.84 50.688-.74.674.009.008.731-.682zm48.128 37.888.487-.873-.487.873zm98.816 1.024.707.707.007-.006.006-.007-.72-.694zM132.81 268.688l-.453.891.006.003.447-.894zm-57.856-33.792-.57.822.012.008.558-.83zM30.41 195.472l.76-.649-.76.649zm-3.584-97.28-.812-.583.812.583zm37.376-31.744.455.89.008-.003.008-.005-.471-.882zm210.432-15.872-.125.992.012.002.113-.994zm77.312 11.776.999.036.031-.845-.828-.17-.202.979zm-5.12 143.36v1h.965l.034-.964-.999-.036zm-7.68 0-.973.229.181.771h.792v-1zm-20.992-52.736-.884.467.005.01.006.01.873-.487zm-34.304-48.64-.741.672.008.008.733-.68zm-44.032-35.84-.512.86.007.003.007.004.498-.867zm-91.648-2.048.566.825-.566-.825zm0 66.56-.638.77.012.01.012.009.614-.789zm46.08 29.184-.473.881.006.003.007.004.46-.888zm59.392 30.208-.447.894.011.006.436-.9zm59.392 33.792-.555.832.011.007.544-.839zm45.568 40.448-.783.623.008.009.008.01.767-.642zm17.432 49.152c0 20.668-4.742 37.691-14.155 51.139l1.638 1.146c9.702-13.859 14.517-31.31 14.517-52.285h-2zm-14.155 51.139c-9.456 13.508-22.127 24.327-38.036 32.45l.91 1.782c16.176-8.261 29.106-19.288 38.764-33.086l-1.638-1.146zm-38.021 32.443c-15.935 7.798-34.265 13.233-55.002 16.293l.292 1.978c20.906-3.084 39.44-8.572 55.59-16.475l-.88-1.796zm-55.018 16.295c-20.765 3.404-42.215 5.107-64.35 5.107v2c22.238 0 43.796-1.711 64.674-5.133l-.324-1.974zm-64.35 5.107c-17.375 0-34.751-.852-52.126-2.555l-.196 1.99a535.888 535.888 0 0 0 52.322 2.565v-2zm-52.144-2.557c-17.046-1.363-33.578-3.238-49.597-5.624l-.294 1.978c16.066 2.393 32.643 4.273 49.731 5.64l.16-1.994zm-49.594-5.624c-15.688-2.387-30.35-4.944-43.986-7.672l-.392 1.962c13.67 2.734 28.363 5.296 44.078 7.688l.3-1.978zm-43.986-7.672c-13.645-2.729-25.407-5.286-35.29-7.671l-.469 1.944c9.915 2.393 21.705 4.956 35.367 7.689l.392-1.962zm-34.525-6.663 5.12-143.36-1.998-.072-5.12 143.36 1.998.072zm4.121-142.396h7.68v-2h-7.68v2zm6.707-.771c4.118 17.504 11.15 35.675 21.08 54.509l1.77-.932c-9.867-18.712-16.83-36.723-20.904-54.035l-1.946.458zm21.084 54.516c9.937 18.504 21.931 35.467 35.982 50.888l1.478-1.346c-13.939-15.299-25.838-32.128-35.698-50.488l-1.762.946zm35.99 50.897c14.404 15.434 30.529 28.128 48.372 38.079l.974-1.746c-17.655-9.847-33.616-22.411-47.884-37.697l-1.462 1.364zm48.372 38.079c17.894 9.98 36.835 14.975 56.807 14.975v-2c-19.622 0-38.228-4.903-55.833-14.721l-.974 1.746zm56.807 14.975c19.257 0 33.727-4.641 43.203-14.117l-1.414-1.414c-8.956 8.956-22.816 13.531-41.789 13.531v2zm43.216-14.13c9.411-9.759 14.104-21.962 14.104-36.534h-2c0 14.1-4.523 25.791-13.544 35.146l1.44 1.388zm14.104-36.534c0-11.658-6.192-22.664-18.269-33.015l-1.302 1.518c11.817 10.129 17.571 20.627 17.571 31.497h2zm-18.269-33.015c-12.005-10.29-26.907-20.565-44.695-30.827l-1 1.732c17.711 10.218 32.505 20.423 44.393 30.613l1.302-1.518zm-44.695-30.827c-17.769-10.251-37.243-20.672-58.421-31.26l-.894 1.788c21.147 10.574 40.586 20.975 58.315 31.204l1-1.732zm-58.415-31.257c-20.788-10.565-40.038-21.809-57.75-33.731l-1.117 1.66c17.786 11.971 37.107 23.255 57.961 33.853l.906-1.782zm-57.74-33.723c-17.69-12.247-32.47-25.332-44.352-39.251l-1.522 1.298c12.012 14.071 26.927 27.268 44.736 39.597l1.138-1.644zm-44.352-39.251C19.365 180.994 13.49 165.689 13.49 148.88h-2c0 17.324 6.071 33.081 18.16 47.241l1.52-1.298zM13.49 148.88c0-20.324 4.74-37.001 14.148-50.105l-1.624-1.166c-9.707 13.52-14.524 30.634-14.524 51.271h2zm14.148-50.105c9.46-13.176 21.793-23.654 37.02-31.437l-.911-1.78c-15.494 7.919-28.078 18.603-37.733 32.05l1.624 1.167zM64.673 67.33C79.92 59.2 97.388 53.597 117.09 50.54l-.306-1.976c-19.892 3.087-37.58 8.75-53.054 17.002l.942 1.764zm52.418-16.79c19.746-3.064 39.833-4.596 60.263-4.596v-2c-20.53 0-40.72 1.54-60.569 4.62l.306 1.976zm60.263-4.596c35.122 0 67.507 1.875 97.155 5.624l.25-1.984c-29.744-3.76-62.213-5.64-97.405-5.64v2zm97.167 5.626c30.018 3.41 55.757 7.332 77.223 11.761l.404-1.958c-21.542-4.446-47.344-8.375-77.401-11.79l-.226 1.987zm76.426 10.746-5.12 143.36 1.998.072 5.12-143.36-1.998-.072zm-4.121 142.396h-7.68v2h7.68v-2zm-6.707.771c-4.119-17.51-11.154-35.175-21.092-52.994l-1.746.974c9.859 17.679 16.819 35.172 20.892 52.478l1.946-.458zm-21.081-52.974c-9.596-18.165-21.081-34.45-34.455-48.853l-1.466 1.36c13.25 14.269 24.635 30.41 34.153 48.427l1.768-.934zm-34.447-48.845c-13.377-14.749-28.135-26.764-44.275-36.035l-.996 1.734c15.946 9.16 30.542 21.04 43.789 35.645l1.482-1.344zM240.33 67.637c-16.179-9.639-32.738-14.477-49.664-14.477v2c16.525 0 32.734 4.719 48.64 14.195l1.024-1.718zM190.666 53.16c-16.558 0-30.927 4.143-43.062 12.463l1.132 1.65c11.758-8.063 25.72-12.113 41.93-12.113v-2zm-43.062 12.463C135.36 74.02 129.25 86.29 129.25 102.288h2c0-15.404 5.837-27.028 17.486-35.015l-1.132-1.65zm-18.354 36.665c0 10.997 6.216 21.492 18.282 31.49l1.276-1.54c-11.827-9.8-17.558-19.785-17.558-29.95h-2zm18.306 31.509c12.344 9.602 27.755 19.359 46.221 29.276l.946-1.762c-18.398-9.881-33.707-19.579-45.939-29.092l-1.228 1.578zm46.234 29.283c18.437 9.56 38.238 19.631 59.405 30.214l.894-1.788c-21.159-10.58-40.952-20.647-59.379-30.202l-.92 1.776zm59.416 30.22c21.124 10.221 40.882 21.463 59.273 33.724l1.11-1.664c-18.473-12.315-38.31-23.601-59.511-33.86l-.872 1.8zm59.284 33.731c18.354 11.896 33.459 25.309 45.329 40.232l1.566-1.246c-12.023-15.114-27.297-28.667-45.807-40.664l-1.088 1.678zm45.345 40.251c12.147 14.509 18.199 30.668 18.199 48.51h2c0-18.34-6.236-34.948-18.665-49.794l-1.534 1.284zM551.09 64.4v-1h-1v1h1zm0 332.8h-1v.867l.859.123.141-.99zm35.84 5.12h1v-.867l-.859-.123-.141.99zm0 7.68v1h1v-1h-1zm-189.44 0h-1v1h1v-1zm0-7.68-.141-.99-.859.123v.867h1zm35.84-5.12.141.99.859-.123v-.867h-1zm0-332.8h1v-.867l-.859-.123-.141.99zm-35.84-5.12h-1v.867l.859.123.141-.99zm0-7.68v-1h-1v1h1zm337.92 7.168-.31.95.007.003.303-.953zm38.4 19.968-.628.778.006.005.006.005.616-.788zm25.088 30.72-.899.437.007.016.008.015.884-.468zm-29.696 105.472.555.832-.555-.832zm-29.696 15.36.336.942-.336-.942zm-19.456 6.656-.287-.958-1.102.331.481 1.045.908-.418zm106.496 231.424.447.894.866-.433-.405-.879-.908.418zm-3.072 1.536-.309.951.39.127.366-.184-.447-.894zm-45.056-19.968-.484.875.008.004.476-.879zm-49.664-31.744.584-.812-.584.812zm-51.2-41.472.669-.743-.669.743zm-48.128-48.64-.765.645.007.008.007.008.751-.661zm-39.936-54.272-.848.53.004.007.844-.537zm-28.16-57.344-.071-.997-1.314.093.443 1.24.942-.336zm44.544-6.144.196.981.011-.003.01-.002-.217-.976zm41.472-14.336-.437-.899-.01.005.447.894zm30.72-23.552-.759-.651-.007.008-.007.008.773.635zm8.192-57.856-.952.305.003.011.949-.316zm-13.312-24.064-.774.633.774-.633zM648.882 72.08l-.472.882.018.01.019.009.435-.901zM550.09 64.4v332.8h2V64.4h-2zm.859 333.79 35.84 5.12.282-1.98-35.84-5.12-.282 1.98zm34.981 4.13V410h2v-7.68h-2zm1 6.68H397.49v2h189.44v-2zm-188.44 1v-7.68h-2V410h2zm-.859-6.69 35.84-5.12-.282-1.98-35.84 5.12.282 1.98zm36.699-6.11V64.4h-2v332.8h2zm-.859-333.79-35.84-5.12-.282 1.98 35.84 5.12.282-1.98zm-34.981-4.13V51.6h-2v7.68h2zm-1-6.68h288.768v-2H397.49v2zm288.768 0c18.003 0 34.281 2.378 48.842 7.119l.62-1.902c-14.793-4.816-31.284-7.217-49.462-7.217v2zm48.849 7.12c14.919 4.748 27.604 11.35 38.075 19.794l1.256-1.556c-10.692-8.623-23.607-15.333-38.725-20.143l-.606 1.906zm38.087 19.804c10.808 8.444 19.071 18.565 24.805 30.369l1.799-.874c-5.873-12.09-14.335-22.448-25.372-31.071l-1.232 1.576zm24.82 30.4c6.063 11.452 9.1 24.089 9.1 37.932h2c0-14.147-3.107-27.109-9.332-38.868l-1.768.936zm9.1 37.932c0 15.875-3.882 29.143-11.588 39.864l1.624 1.168c7.995-11.124 11.964-24.821 11.964-41.032h-2zm-11.588 39.864c-7.787 10.835-16.748 19.622-26.879 26.376l1.11 1.664c10.349-6.899 19.479-15.861 27.393-26.872l-1.624-1.168zm-26.879 26.376c-10.186 6.79-20.011 11.87-29.477 15.25l.672 1.884c9.649-3.446 19.621-8.607 29.915-15.47l-1.11-1.664zm-29.477 15.25c-9.561 3.415-16.022 5.625-19.407 6.64l.574 1.916c3.442-1.033 9.951-3.26 19.505-6.672l-.672-1.884zm-20.028 8.016 106.496 231.424 1.816-.836-106.496-231.424-1.816.836zm106.957 230.112-3.072 1.536.894 1.788 3.072-1.536-.894-1.788zm-2.316 1.479c-13.581-4.414-28.543-11.043-44.889-19.896l-.952 1.758c16.422 8.896 31.498 15.579 45.223 20.04l.618-1.902zm-44.881-19.892c-16.003-8.853-32.525-19.412-49.564-31.681l-1.168 1.624c17.094 12.307 33.682 22.911 49.764 31.807l.968-1.75zm-49.564-31.681c-17.034-12.265-34.073-26.065-51.115-41.403l-1.338 1.486c17.091 15.382 34.186 29.23 51.285 41.541l1.168-1.624zm-51.115-41.403a587.121 587.121 0 0 1-48.046-48.558l-1.502 1.322a589.076 589.076 0 0 0 48.21 48.722l1.338-1.486zm-48.032-48.542c-14.65-17.374-27.935-35.429-39.857-54.164l-1.688 1.074c11.972 18.812 25.31 36.938 40.015 54.38l1.53-1.29zm-39.853-54.157c-11.913-19.06-21.266-38.11-28.066-57.15l-1.884.672c6.854 19.19 16.273 38.369 28.254 57.538l1.696-1.06zm-28.937-55.817c14.382-1.027 29.272-3.081 44.669-6.16l-.392-1.962c-15.323 3.065-30.129 5.107-44.419 6.128l.142 1.994zm44.69-6.165c15.428-3.428 29.331-8.232 41.702-14.418l-.894-1.788c-12.205 6.102-25.95 10.856-41.242 14.254l.434 1.952zm41.692-14.413c12.742-6.198 23.102-14.133 31.056-23.816l-1.546-1.27c-7.747 9.432-17.867 17.198-30.384 23.288l.874 1.798zm31.042-23.8c8.361-9.755 12.529-21.597 12.529-35.467h-2c0 13.436-4.024 24.805-12.047 34.165l1.518 1.302zm12.529-35.467c0-7.295-1.389-15.082-4.147-23.356l-1.898.632c2.704 8.11 4.045 15.683 4.045 22.724h2zm-4.144-23.345c-2.772-8.662-7.273-16.794-13.49-24.392l-1.548 1.266c6.071 7.42 10.444 15.332 13.134 23.736l1.904-.61zm-13.49-24.392c-6.248-7.636-14.391-13.866-24.403-18.7l-.87 1.802c9.785 4.723 17.685 10.782 23.725 18.164l1.548-1.266zm-24.366-18.68c-9.738-5.218-21.687-7.799-35.8-7.799v2c13.876 0 25.48 2.539 34.856 7.561l.944-1.763zm-35.8-7.799H551.09v2h62.464v-2zm445.896 338.92-.14-.99-.86.124v.866h1zm35.33-5.12.14.99 1.51-.22-.8-1.298-.85.528zM989.818 228.24l-.745-.667-.5.558.396.637.849-.528zM1133.69 67.472l.75.667 1.21-1.357-1.8-.297-.16.987zm-49.66-8.192h-1v.849l.83.138.17-.987zm0-7.68v-1h-1v1h1zm104.44 0h1v-1h-1v1zm0 7.68.23.974.77-.18v-.794h-1zm-35.32 8.192-.23-.974-.31.071-.21.236.75.667zm-74.76 83.456-.74-.667-.5.559.4.637.84-.529zm153.6 246.272-.84.529.24.394.46.067.14-.99zm35.33 5.12h1v-.866l-.85-.124-.15.99zm0 7.68v1h1v-1h-1zm-207.87 0h-1v1h1v-1zm-79.36-12.8h-1v.867l.859.123.141-.99zm35.84 5.12h1v-.867l-.86-.123-.14.99zm0 7.68v1h1v-1h-1zm-189.44 0h-1v1h1v-1zm0-7.68-.141-.99-.859.123v.867h1zm35.84-5.12.141.99.859-.123v-.867h-1zm0-332.8h1v-.867l-.859-.123-.141.99zm-35.84-5.12h-1v.867l.859.123.141-.99zm0-7.68v-1h-1v1h1zm189.44 0h1v-1h-1v1zm0 7.68.14.99.86-.123v-.867h-1zm-35.84 5.12-.141-.99-.859.123v.867h1zm79.5 338.91 35.33-5.12-.29-1.98-35.32 5.12.28 1.98zm36.04-6.638-104.963-168.96-1.698 1.056 104.961 168.96 1.7-1.056zM990.563 228.907 1134.44 68.139l-1.5-1.334-143.867 160.768 1.49 1.334zM1133.85 66.485l-49.66-8.192-.33 1.974 49.67 8.192.32-1.974zm-48.82-7.205V51.6h-2v7.68h2zm-1-6.68h104.44v-2h-104.44v2zm103.44-1v7.68h2V51.6h-2zm.78 6.706-35.33 8.192.45 1.948 35.33-8.192-.45-1.948zm-35.85 8.499-74.75 83.456 1.49 1.334 74.75-83.456-1.49-1.334zm-74.85 84.652 153.6 246.272 1.69-1.058-153.6-246.272-1.69 1.058zm154.3 246.733 35.33 5.12.29-1.98-35.33-5.12-.29 1.98zm34.47 4.13V410h2v-7.68h-2zm1 6.68h-207.87v2h207.87v-2zm-206.87 1v-7.68h-2V410h2zm-80.501-11.81 35.841 5.12.28-1.98-35.839-5.12-.282 1.98zm34.981 4.13V410h2v-7.68h-2zm1 6.68H826.49v2h189.44v-2zm-188.44 1v-7.68h-2V410h2zm-.859-6.69 35.84-5.12-.282-1.98-35.84 5.12.282 1.98zm36.699-6.11V64.4h-2v332.8h2zm-.859-333.79-35.84-5.12-.282 1.98 35.84 5.12.282-1.98zm-34.981-4.13V51.6h-2v7.68h2zm-1-6.68h189.44v-2H826.49v2zm188.44-1v7.68h2V51.6h-2zm.86 6.69-35.841 5.12.282 1.98 35.839-5.12-.28-1.98zm-36.7 6.11v332.8h2V64.4h-2z" fill="url(#b)"/></g><defs><linearGradient id="b" x1="1280" y1="508" x2="8.007" y2="-19.314" gradientUnits="userSpaceOnUse"><stop stop-color="#B56576"/><stop offset="1" stop-color="#6D597A"/></linearGradient></defs></svg>